<mxfile host="app.diagrams.net" modified="2023-11-23T17:07:04.140Z" agent="Mozilla/5.0 (Windows NT 10.0; Win64; x64) AppleWebKit/537.36 (KHTML, like Gecko) Chrome/119.0.0.0 Safari/537.36 Edg/119.0.0.0" etag="N-ZJmEZN-djbP7-SBpa7" version="22.1.3" type="device">
  <diagram id="C5RBs43oDa-KdzZeNtuy" name="Page-1">
    <mxGraphModel dx="2703" dy="4067" grid="1" gridSize="10" guides="1" tooltips="1" connect="1" arrows="1" fold="1" page="1" pageScale="1" pageWidth="827" pageHeight="1169" math="0" shadow="0">
      <root>
        <mxCell id="WIyWlLk6GJQsqaUBKTNV-0" />
        <mxCell id="WIyWlLk6GJQsqaUBKTNV-1" parent="WIyWlLk6GJQsqaUBKTNV-0" />
        <mxCell id="4MDXBfZJIh8W5gzM78hZ-29" value="" style="edgeStyle=orthogonalEdgeStyle;rounded=0;orthogonalLoop=1;jettySize=auto;html=1;" parent="WIyWlLk6GJQsqaUBKTNV-1" source="4MDXBfZJIh8W5gzM78hZ-0" target="4MDXBfZJIh8W5gzM78hZ-28" edge="1">
          <mxGeometry relative="1" as="geometry" />
        </mxCell>
        <mxCell id="4MDXBfZJIh8W5gzM78hZ-0" value="start" style="ellipse;whiteSpace=wrap;html=1;" parent="WIyWlLk6GJQsqaUBKTNV-1" vertex="1">
          <mxGeometry x="354" y="20" width="120" height="80" as="geometry" />
        </mxCell>
        <mxCell id="4MDXBfZJIh8W5gzM78hZ-4" value="" style="edgeStyle=orthogonalEdgeStyle;rounded=0;orthogonalLoop=1;jettySize=auto;html=1;" parent="WIyWlLk6GJQsqaUBKTNV-1" source="4MDXBfZJIh8W5gzM78hZ-1" target="4MDXBfZJIh8W5gzM78hZ-3" edge="1">
          <mxGeometry relative="1" as="geometry" />
        </mxCell>
        <mxCell id="4MDXBfZJIh8W5gzM78hZ-1" value="increasea(int a[],int n)" style="ellipse;whiteSpace=wrap;html=1;" parent="WIyWlLk6GJQsqaUBKTNV-1" vertex="1">
          <mxGeometry x="500" y="-280" width="120" height="80" as="geometry" />
        </mxCell>
        <mxCell id="4MDXBfZJIh8W5gzM78hZ-54" style="edgeStyle=orthogonalEdgeStyle;rounded=0;orthogonalLoop=1;jettySize=auto;html=1;entryX=0;entryY=0.75;entryDx=0;entryDy=0;" parent="WIyWlLk6GJQsqaUBKTNV-1" source="4MDXBfZJIh8W5gzM78hZ-2" target="4MDXBfZJIh8W5gzM78hZ-31" edge="1">
          <mxGeometry relative="1" as="geometry" />
        </mxCell>
        <mxCell id="4MDXBfZJIh8W5gzM78hZ-2" value="&#xa;&lt;div style=&quot;color: rgb(212, 212, 212); background-color: rgb(30, 30, 30); font-family: Consolas, &amp;quot;Courier New&amp;quot;, monospace; font-weight: normal; font-size: 14px; line-height: 19px;&quot;&gt;&lt;div&gt;&lt;span style=&quot;color: #d4d4d4;&quot;&gt;&amp;nbsp;&lt;/span&gt;&lt;span style=&quot;color: #c8c8c8;&quot;&gt;decrease&lt;/span&gt;&lt;span style=&quot;color: #d4d4d4;&quot;&gt;(&lt;/span&gt;&lt;span style=&quot;color: #569cd6;&quot;&gt;int&lt;/span&gt;&lt;span style=&quot;color: #d4d4d4;&quot;&gt; &lt;/span&gt;&lt;span style=&quot;color: #7f7f7f;&quot;&gt;a&lt;/span&gt;&lt;span style=&quot;color: #569cd6;&quot;&gt;[]&lt;/span&gt;&lt;span style=&quot;color: #d4d4d4;&quot;&gt;, &lt;/span&gt;&lt;span style=&quot;color: #569cd6;&quot;&gt;int&lt;/span&gt;&lt;span style=&quot;color: #d4d4d4;&quot;&gt; &lt;/span&gt;&lt;span style=&quot;color: #7f7f7f;&quot;&gt;n&lt;/span&gt;&lt;span style=&quot;color: #d4d4d4;&quot;&gt;)&lt;/span&gt;&lt;/div&gt;&lt;/div&gt;&#xa;&#xa;" style="ellipse;whiteSpace=wrap;html=1;" parent="WIyWlLk6GJQsqaUBKTNV-1" vertex="1">
          <mxGeometry x="400" y="-960" width="220" height="90" as="geometry" />
        </mxCell>
        <mxCell id="4MDXBfZJIh8W5gzM78hZ-6" value="" style="edgeStyle=orthogonalEdgeStyle;rounded=0;orthogonalLoop=1;jettySize=auto;html=1;" parent="WIyWlLk6GJQsqaUBKTNV-1" source="4MDXBfZJIh8W5gzM78hZ-3" target="4MDXBfZJIh8W5gzM78hZ-13" edge="1">
          <mxGeometry relative="1" as="geometry">
            <mxPoint x="910" y="-240" as="targetPoint" />
          </mxGeometry>
        </mxCell>
        <mxCell id="4MDXBfZJIh8W5gzM78hZ-3" value="int i=0,j=0;" style="whiteSpace=wrap;html=1;" parent="WIyWlLk6GJQsqaUBKTNV-1" vertex="1">
          <mxGeometry x="700" y="-270" width="120" height="60" as="geometry" />
        </mxCell>
        <mxCell id="4MDXBfZJIh8W5gzM78hZ-8" value="" style="edgeStyle=orthogonalEdgeStyle;rounded=0;orthogonalLoop=1;jettySize=auto;html=1;" parent="WIyWlLk6GJQsqaUBKTNV-1" source="4MDXBfZJIh8W5gzM78hZ-5" target="4MDXBfZJIh8W5gzM78hZ-7" edge="1">
          <mxGeometry relative="1" as="geometry" />
        </mxCell>
        <mxCell id="4MDXBfZJIh8W5gzM78hZ-20" value="true" style="edgeLabel;html=1;align=center;verticalAlign=middle;resizable=0;points=[];" parent="4MDXBfZJIh8W5gzM78hZ-8" vertex="1" connectable="0">
          <mxGeometry y="-2" relative="1" as="geometry">
            <mxPoint as="offset" />
          </mxGeometry>
        </mxCell>
        <mxCell id="4MDXBfZJIh8W5gzM78hZ-10" value="" style="edgeStyle=orthogonalEdgeStyle;rounded=0;orthogonalLoop=1;jettySize=auto;html=1;" parent="WIyWlLk6GJQsqaUBKTNV-1" source="4MDXBfZJIh8W5gzM78hZ-5" target="4MDXBfZJIh8W5gzM78hZ-9" edge="1">
          <mxGeometry relative="1" as="geometry" />
        </mxCell>
        <mxCell id="4MDXBfZJIh8W5gzM78hZ-19" value="false" style="edgeLabel;html=1;align=center;verticalAlign=middle;resizable=0;points=[];" parent="4MDXBfZJIh8W5gzM78hZ-10" vertex="1" connectable="0">
          <mxGeometry x="0.0222" relative="1" as="geometry">
            <mxPoint as="offset" />
          </mxGeometry>
        </mxCell>
        <mxCell id="4MDXBfZJIh8W5gzM78hZ-5" value="&#xa;&lt;div style=&quot;color: rgb(212, 212, 212); background-color: rgb(30, 30, 30); font-family: Consolas, &amp;quot;Courier New&amp;quot;, monospace; font-weight: normal; font-size: 14px; line-height: 19px;&quot;&gt;&lt;div&gt;&lt;span style=&quot;color: #7f7f7f;&quot;&gt;a&lt;/span&gt;&lt;span style=&quot;color: #d4d4d4;&quot;&gt;[&lt;/span&gt;&lt;span style=&quot;color: #c8c8c8;&quot;&gt;j&lt;/span&gt;&lt;span style=&quot;color: #d4d4d4;&quot;&gt;] &amp;lt; &lt;/span&gt;&lt;span style=&quot;color: #7f7f7f;&quot;&gt;a&lt;/span&gt;&lt;span style=&quot;color: #d4d4d4;&quot;&gt;[&lt;/span&gt;&lt;span style=&quot;color: #c8c8c8;&quot;&gt;j&lt;/span&gt;&lt;span style=&quot;color: #d4d4d4;&quot;&gt; + &lt;/span&gt;&lt;span style=&quot;color: #b5cea8;&quot;&gt;1&lt;/span&gt;&lt;/div&gt;&lt;/div&gt;&#xa;&#xa;" style="rhombus;whiteSpace=wrap;html=1;" parent="WIyWlLk6GJQsqaUBKTNV-1" vertex="1">
          <mxGeometry x="1260" y="-280" width="120" height="80" as="geometry" />
        </mxCell>
        <mxCell id="4MDXBfZJIh8W5gzM78hZ-11" style="edgeStyle=orthogonalEdgeStyle;rounded=0;orthogonalLoop=1;jettySize=auto;html=1;entryX=1;entryY=0.5;entryDx=0;entryDy=0;" parent="WIyWlLk6GJQsqaUBKTNV-1" source="4MDXBfZJIh8W5gzM78hZ-7" target="4MDXBfZJIh8W5gzM78hZ-9" edge="1">
          <mxGeometry relative="1" as="geometry">
            <mxPoint x="1545" y="-50" as="targetPoint" />
            <Array as="points">
              <mxPoint x="1545" y="-130" />
              <mxPoint x="1546" y="-130" />
              <mxPoint x="1546" y="-80" />
            </Array>
          </mxGeometry>
        </mxCell>
        <mxCell id="4MDXBfZJIh8W5gzM78hZ-7" value="&lt;span style=&quot;background-color: rgb(30, 30, 30); font-family: Consolas, &amp;quot;Courier New&amp;quot;, monospace; font-size: 14px; color: rgb(86, 156, 214);&quot;&gt;int&lt;/span&gt;&lt;span style=&quot;background-color: rgb(30, 30, 30); color: rgb(212, 212, 212); font-family: Consolas, &amp;quot;Courier New&amp;quot;, monospace; font-size: 14px;&quot;&gt; &lt;/span&gt;&lt;span style=&quot;background-color: rgb(30, 30, 30); font-family: Consolas, &amp;quot;Courier New&amp;quot;, monospace; font-size: 14px; color: rgb(200, 200, 200);&quot;&gt;temp&lt;/span&gt;&lt;span style=&quot;background-color: rgb(30, 30, 30); color: rgb(212, 212, 212); font-family: Consolas, &amp;quot;Courier New&amp;quot;, monospace; font-size: 14px;&quot;&gt; = &lt;/span&gt;&lt;span style=&quot;background-color: rgb(30, 30, 30); font-family: Consolas, &amp;quot;Courier New&amp;quot;, monospace; font-size: 14px; color: rgb(127, 127, 127);&quot;&gt;a&lt;/span&gt;&lt;span style=&quot;background-color: rgb(30, 30, 30); color: rgb(212, 212, 212); font-family: Consolas, &amp;quot;Courier New&amp;quot;, monospace; font-size: 14px;&quot;&gt;[&lt;/span&gt;&lt;span style=&quot;background-color: rgb(30, 30, 30); font-family: Consolas, &amp;quot;Courier New&amp;quot;, monospace; font-size: 14px; color: rgb(200, 200, 200);&quot;&gt;j&lt;/span&gt;&lt;span style=&quot;background-color: rgb(30, 30, 30); color: rgb(212, 212, 212); font-family: Consolas, &amp;quot;Courier New&amp;quot;, monospace; font-size: 14px;&quot;&gt;]&lt;br&gt;&lt;/span&gt;&lt;span style=&quot;background-color: rgb(30, 30, 30); color: rgb(212, 212, 212); font-family: Consolas, &amp;quot;Courier New&amp;quot;, monospace; font-size: 14px;&quot;&gt;&amp;nbsp;&lt;/span&gt;&lt;span style=&quot;background-color: rgb(30, 30, 30); font-family: Consolas, &amp;quot;Courier New&amp;quot;, monospace; font-size: 14px; color: rgb(127, 127, 127);&quot;&gt;a&lt;/span&gt;&lt;span style=&quot;background-color: rgb(30, 30, 30); color: rgb(212, 212, 212); font-family: Consolas, &amp;quot;Courier New&amp;quot;, monospace; font-size: 14px;&quot;&gt;[&lt;/span&gt;&lt;span style=&quot;background-color: rgb(30, 30, 30); font-family: Consolas, &amp;quot;Courier New&amp;quot;, monospace; font-size: 14px; color: rgb(200, 200, 200);&quot;&gt;j&lt;/span&gt;&lt;span style=&quot;background-color: rgb(30, 30, 30); color: rgb(212, 212, 212); font-family: Consolas, &amp;quot;Courier New&amp;quot;, monospace; font-size: 14px;&quot;&gt;] = &lt;/span&gt;&lt;span style=&quot;background-color: rgb(30, 30, 30); font-family: Consolas, &amp;quot;Courier New&amp;quot;, monospace; font-size: 14px; color: rgb(127, 127, 127);&quot;&gt;a&lt;/span&gt;&lt;span style=&quot;background-color: rgb(30, 30, 30); color: rgb(212, 212, 212); font-family: Consolas, &amp;quot;Courier New&amp;quot;, monospace; font-size: 14px;&quot;&gt;[&lt;/span&gt;&lt;span style=&quot;background-color: rgb(30, 30, 30); font-family: Consolas, &amp;quot;Courier New&amp;quot;, monospace; font-size: 14px; color: rgb(200, 200, 200);&quot;&gt;j&lt;/span&gt;&lt;span style=&quot;background-color: rgb(30, 30, 30); color: rgb(212, 212, 212); font-family: Consolas, &amp;quot;Courier New&amp;quot;, monospace; font-size: 14px;&quot;&gt; + &lt;/span&gt;&lt;span style=&quot;background-color: rgb(30, 30, 30); font-family: Consolas, &amp;quot;Courier New&amp;quot;, monospace; font-size: 14px; color: rgb(181, 206, 168);&quot;&gt;1&lt;/span&gt;&lt;span style=&quot;background-color: rgb(30, 30, 30); color: rgb(212, 212, 212); font-family: Consolas, &amp;quot;Courier New&amp;quot;, monospace; font-size: 14px;&quot;&gt;]&lt;/span&gt;&lt;span style=&quot;background-color: rgb(30, 30, 30); color: rgb(212, 212, 212); font-family: Consolas, &amp;quot;Courier New&amp;quot;, monospace; font-size: 14px;&quot;&gt;&amp;nbsp;&amp;nbsp;&lt;br&gt;&lt;/span&gt;&lt;span style=&quot;background-color: rgb(30, 30, 30); font-family: Consolas, &amp;quot;Courier New&amp;quot;, monospace; font-size: 14px; color: rgb(127, 127, 127);&quot;&gt;a&lt;/span&gt;&lt;span style=&quot;background-color: rgb(30, 30, 30); color: rgb(212, 212, 212); font-family: Consolas, &amp;quot;Courier New&amp;quot;, monospace; font-size: 14px;&quot;&gt;[&lt;/span&gt;&lt;span style=&quot;background-color: rgb(30, 30, 30); font-family: Consolas, &amp;quot;Courier New&amp;quot;, monospace; font-size: 14px; color: rgb(200, 200, 200);&quot;&gt;j&lt;/span&gt;&lt;span style=&quot;background-color: rgb(30, 30, 30); color: rgb(212, 212, 212); font-family: Consolas, &amp;quot;Courier New&amp;quot;, monospace; font-size: 14px;&quot;&gt; + &lt;/span&gt;&lt;span style=&quot;background-color: rgb(30, 30, 30); font-family: Consolas, &amp;quot;Courier New&amp;quot;, monospace; font-size: 14px; color: rgb(181, 206, 168);&quot;&gt;1&lt;/span&gt;&lt;span style=&quot;background-color: rgb(30, 30, 30); color: rgb(212, 212, 212); font-family: Consolas, &amp;quot;Courier New&amp;quot;, monospace; font-size: 14px;&quot;&gt;] = &lt;/span&gt;&lt;span style=&quot;background-color: rgb(30, 30, 30); font-family: Consolas, &amp;quot;Courier New&amp;quot;, monospace; font-size: 14px; color: rgb(200, 200, 200);&quot;&gt;temp&lt;/span&gt;&lt;span style=&quot;background-color: rgb(30, 30, 30); color: rgb(212, 212, 212); font-family: Consolas, &amp;quot;Courier New&amp;quot;, monospace; font-size: 14px;&quot;&gt;&lt;br&gt;&lt;/span&gt;" style="whiteSpace=wrap;html=1;" parent="WIyWlLk6GJQsqaUBKTNV-1" vertex="1">
          <mxGeometry x="1460" y="-270" width="170" height="60" as="geometry" />
        </mxCell>
        <mxCell id="4MDXBfZJIh8W5gzM78hZ-12" style="edgeStyle=orthogonalEdgeStyle;rounded=0;orthogonalLoop=1;jettySize=auto;html=1;" parent="WIyWlLk6GJQsqaUBKTNV-1" source="4MDXBfZJIh8W5gzM78hZ-9" edge="1">
          <mxGeometry relative="1" as="geometry">
            <mxPoint x="1000" y="-240" as="targetPoint" />
          </mxGeometry>
        </mxCell>
        <mxCell id="4MDXBfZJIh8W5gzM78hZ-9" value="j++" style="whiteSpace=wrap;html=1;" parent="WIyWlLk6GJQsqaUBKTNV-1" vertex="1">
          <mxGeometry x="1260" y="-110" width="120" height="60" as="geometry" />
        </mxCell>
        <mxCell id="4MDXBfZJIh8W5gzM78hZ-15" value="" style="edgeStyle=orthogonalEdgeStyle;rounded=0;orthogonalLoop=1;jettySize=auto;html=1;" parent="WIyWlLk6GJQsqaUBKTNV-1" source="4MDXBfZJIh8W5gzM78hZ-13" target="4MDXBfZJIh8W5gzM78hZ-14" edge="1">
          <mxGeometry relative="1" as="geometry" />
        </mxCell>
        <mxCell id="4MDXBfZJIh8W5gzM78hZ-22" value="true" style="edgeLabel;html=1;align=center;verticalAlign=middle;resizable=0;points=[];" parent="4MDXBfZJIh8W5gzM78hZ-15" vertex="1" connectable="0">
          <mxGeometry x="-0.225" relative="1" as="geometry">
            <mxPoint as="offset" />
          </mxGeometry>
        </mxCell>
        <mxCell id="4MDXBfZJIh8W5gzM78hZ-24" value="" style="edgeStyle=orthogonalEdgeStyle;rounded=0;orthogonalLoop=1;jettySize=auto;html=1;" parent="WIyWlLk6GJQsqaUBKTNV-1" source="4MDXBfZJIh8W5gzM78hZ-13" target="4MDXBfZJIh8W5gzM78hZ-23" edge="1">
          <mxGeometry relative="1" as="geometry" />
        </mxCell>
        <mxCell id="4MDXBfZJIh8W5gzM78hZ-13" value="&#xa;&lt;div style=&quot;color: rgb(212, 212, 212); background-color: rgb(30, 30, 30); font-family: Consolas, &amp;quot;Courier New&amp;quot;, monospace; font-weight: normal; font-size: 14px; line-height: 19px;&quot;&gt;&lt;div&gt;&lt;span style=&quot;color: #c8c8c8;&quot;&gt;i&lt;/span&gt;&lt;span style=&quot;color: #d4d4d4;&quot;&gt; &amp;lt; &lt;/span&gt;&lt;span style=&quot;color: #7f7f7f;&quot;&gt;n&lt;/span&gt;&lt;span style=&quot;color: #d4d4d4;&quot;&gt; - &lt;/span&gt;&lt;span style=&quot;color: #b5cea8;&quot;&gt;1&lt;/span&gt;&lt;/div&gt;&lt;/div&gt;&#xa;&#xa;" style="rhombus;whiteSpace=wrap;html=1;" parent="WIyWlLk6GJQsqaUBKTNV-1" vertex="1">
          <mxGeometry x="870" y="-280" width="80" height="80" as="geometry" />
        </mxCell>
        <mxCell id="4MDXBfZJIh8W5gzM78hZ-16" value="true" style="edgeStyle=orthogonalEdgeStyle;rounded=0;orthogonalLoop=1;jettySize=auto;html=1;entryX=0;entryY=0.5;entryDx=0;entryDy=0;" parent="WIyWlLk6GJQsqaUBKTNV-1" source="4MDXBfZJIh8W5gzM78hZ-14" target="4MDXBfZJIh8W5gzM78hZ-5" edge="1">
          <mxGeometry relative="1" as="geometry" />
        </mxCell>
        <mxCell id="4MDXBfZJIh8W5gzM78hZ-18" value="false" style="edgeStyle=orthogonalEdgeStyle;rounded=0;orthogonalLoop=1;jettySize=auto;html=1;" parent="WIyWlLk6GJQsqaUBKTNV-1" source="4MDXBfZJIh8W5gzM78hZ-14" target="4MDXBfZJIh8W5gzM78hZ-17" edge="1">
          <mxGeometry relative="1" as="geometry" />
        </mxCell>
        <mxCell id="4MDXBfZJIh8W5gzM78hZ-14" value="&lt;br&gt;&lt;div style=&quot;color: rgb(212, 212, 212); background-color: rgb(30, 30, 30); font-family: Consolas, &amp;quot;Courier New&amp;quot;, monospace; font-weight: normal; font-size: 14px; line-height: 19px;&quot;&gt;&lt;div&gt;&lt;/div&gt;&lt;/div&gt;&lt;div style=&quot;color: rgb(212, 212, 212); background-color: rgb(30, 30, 30); font-family: Consolas, &amp;quot;Courier New&amp;quot;, monospace; font-size: 14px; line-height: 19px;&quot;&gt;&amp;nbsp;j &amp;lt; &lt;span style=&quot;color: #7f7f7f;&quot;&gt;n&lt;/span&gt; - &lt;span style=&quot;color: #c8c8c8;&quot;&gt;i&lt;/span&gt; - &lt;span style=&quot;color: #b5cea8;&quot;&gt;1&lt;/span&gt;&lt;/div&gt;" style="rhombus;whiteSpace=wrap;html=1;" parent="WIyWlLk6GJQsqaUBKTNV-1" vertex="1">
          <mxGeometry x="1030" y="-280" width="130" height="80" as="geometry" />
        </mxCell>
        <mxCell id="4MDXBfZJIh8W5gzM78hZ-21" style="edgeStyle=orthogonalEdgeStyle;rounded=0;orthogonalLoop=1;jettySize=auto;html=1;" parent="WIyWlLk6GJQsqaUBKTNV-1" source="4MDXBfZJIh8W5gzM78hZ-17" edge="1">
          <mxGeometry relative="1" as="geometry">
            <mxPoint x="850" y="-240" as="targetPoint" />
          </mxGeometry>
        </mxCell>
        <mxCell id="4MDXBfZJIh8W5gzM78hZ-17" value="i++" style="whiteSpace=wrap;html=1;" parent="WIyWlLk6GJQsqaUBKTNV-1" vertex="1">
          <mxGeometry x="1035" y="-430" width="120" height="60" as="geometry" />
        </mxCell>
        <mxCell id="4MDXBfZJIh8W5gzM78hZ-23" value="a[i]" style="shape=parallelogram;perimeter=parallelogramPerimeter;whiteSpace=wrap;html=1;fixedSize=1;" parent="WIyWlLk6GJQsqaUBKTNV-1" vertex="1">
          <mxGeometry x="850" y="110" width="120" height="60" as="geometry" />
        </mxCell>
        <mxCell id="4MDXBfZJIh8W5gzM78hZ-56" value="" style="edgeStyle=orthogonalEdgeStyle;rounded=0;orthogonalLoop=1;jettySize=auto;html=1;" parent="WIyWlLk6GJQsqaUBKTNV-1" source="4MDXBfZJIh8W5gzM78hZ-28" target="4MDXBfZJIh8W5gzM78hZ-57" edge="1">
          <mxGeometry relative="1" as="geometry">
            <mxPoint x="414" y="519.9999999999995" as="targetPoint" />
          </mxGeometry>
        </mxCell>
        <mxCell id="4MDXBfZJIh8W5gzM78hZ-28" value="&#xa;&lt;div style=&quot;color: rgb(212, 212, 212); background-color: rgb(30, 30, 30); font-family: Consolas, &amp;quot;Courier New&amp;quot;, monospace; font-weight: normal; font-size: 14px; line-height: 19px;&quot;&gt;&lt;div&gt;&lt;span style=&quot;color: #569cd6;&quot;&gt;int&lt;/span&gt;&lt;span style=&quot;color: #d4d4d4;&quot;&gt; &lt;/span&gt;&lt;span style=&quot;color: #c8c8c8;&quot;&gt;n&lt;/span&gt;&lt;span style=&quot;color: #d4d4d4;&quot;&gt;, &lt;/span&gt;&lt;span style=&quot;color: #c8c8c8;&quot;&gt;i&lt;/span&gt;&lt;span style=&quot;color: #d4d4d4;&quot;&gt;, &lt;/span&gt;&lt;span style=&quot;color: #c8c8c8;&quot;&gt;count&lt;/span&gt;&lt;span style=&quot;color: #d4d4d4;&quot;&gt;, &lt;/span&gt;&lt;span style=&quot;color: #c8c8c8;&quot;&gt;choice&lt;/span&gt;&lt;span style=&quot;color: #d4d4d4;&quot;&gt;, &lt;/span&gt;&lt;span style=&quot;color: #c8c8c8;&quot;&gt;a&lt;/span&gt;&lt;span style=&quot;color: #d4d4d4;&quot;&gt;[&lt;/span&gt;&lt;span style=&quot;color: #b5cea8;&quot;&gt;100&lt;/span&gt;&lt;span style=&quot;color: #d4d4d4;&quot;&gt;], &lt;/span&gt;&lt;span style=&quot;color: #c8c8c8;&quot;&gt;current&lt;/span&gt;&lt;span style=&quot;color: #d4d4d4;&quot;&gt; = &lt;/span&gt;&lt;span style=&quot;color: #b5cea8;&quot;&gt;0&lt;/span&gt;&lt;span style=&quot;color: #d4d4d4;&quot;&gt;, &lt;/span&gt;&lt;span style=&quot;color: #c8c8c8;&quot;&gt;countArrange&lt;/span&gt;&lt;span style=&quot;color: #d4d4d4;&quot;&gt; = &lt;/span&gt;&lt;span style=&quot;color: #b5cea8;&quot;&gt;0&lt;/span&gt;&lt;span style=&quot;color: #d4d4d4;&quot;&gt;;&lt;/span&gt;&lt;/div&gt;&lt;/div&gt;&#xa;&#xa;" style="shape=parallelogram;perimeter=parallelogramPerimeter;whiteSpace=wrap;html=1;fixedSize=1;" parent="WIyWlLk6GJQsqaUBKTNV-1" vertex="1">
          <mxGeometry x="254" y="240" width="320" height="160" as="geometry" />
        </mxCell>
        <mxCell id="4MDXBfZJIh8W5gzM78hZ-30" value="" style="edgeStyle=orthogonalEdgeStyle;rounded=0;orthogonalLoop=1;jettySize=auto;html=1;" parent="WIyWlLk6GJQsqaUBKTNV-1" source="4MDXBfZJIh8W5gzM78hZ-31" target="4MDXBfZJIh8W5gzM78hZ-44" edge="1">
          <mxGeometry relative="1" as="geometry">
            <mxPoint x="900" y="-1020" as="targetPoint" />
          </mxGeometry>
        </mxCell>
        <mxCell id="4MDXBfZJIh8W5gzM78hZ-31" value="int i=0,j=0;" style="whiteSpace=wrap;html=1;" parent="WIyWlLk6GJQsqaUBKTNV-1" vertex="1">
          <mxGeometry x="690" y="-1050" width="120" height="60" as="geometry" />
        </mxCell>
        <mxCell id="4MDXBfZJIh8W5gzM78hZ-32" value="" style="edgeStyle=orthogonalEdgeStyle;rounded=0;orthogonalLoop=1;jettySize=auto;html=1;" parent="WIyWlLk6GJQsqaUBKTNV-1" source="4MDXBfZJIh8W5gzM78hZ-36" target="4MDXBfZJIh8W5gzM78hZ-38" edge="1">
          <mxGeometry relative="1" as="geometry" />
        </mxCell>
        <mxCell id="4MDXBfZJIh8W5gzM78hZ-33" value="true" style="edgeLabel;html=1;align=center;verticalAlign=middle;resizable=0;points=[];" parent="4MDXBfZJIh8W5gzM78hZ-32" vertex="1" connectable="0">
          <mxGeometry y="-2" relative="1" as="geometry">
            <mxPoint as="offset" />
          </mxGeometry>
        </mxCell>
        <mxCell id="4MDXBfZJIh8W5gzM78hZ-34" value="" style="edgeStyle=orthogonalEdgeStyle;rounded=0;orthogonalLoop=1;jettySize=auto;html=1;" parent="WIyWlLk6GJQsqaUBKTNV-1" source="4MDXBfZJIh8W5gzM78hZ-36" target="4MDXBfZJIh8W5gzM78hZ-40" edge="1">
          <mxGeometry relative="1" as="geometry" />
        </mxCell>
        <mxCell id="4MDXBfZJIh8W5gzM78hZ-35" value="false" style="edgeLabel;html=1;align=center;verticalAlign=middle;resizable=0;points=[];" parent="4MDXBfZJIh8W5gzM78hZ-34" vertex="1" connectable="0">
          <mxGeometry x="0.0222" relative="1" as="geometry">
            <mxPoint as="offset" />
          </mxGeometry>
        </mxCell>
        <mxCell id="4MDXBfZJIh8W5gzM78hZ-36" value="&lt;br&gt;&lt;div style=&quot;color: rgb(212, 212, 212); background-color: rgb(30, 30, 30); font-family: Consolas, &amp;quot;Courier New&amp;quot;, monospace; font-weight: normal; font-size: 14px; line-height: 19px;&quot;&gt;&lt;div&gt;&lt;span style=&quot;color: #7f7f7f;&quot;&gt;a&lt;/span&gt;&lt;span style=&quot;color: #d4d4d4;&quot;&gt;[&lt;/span&gt;&lt;span style=&quot;color: #c8c8c8;&quot;&gt;j&lt;/span&gt;&lt;span style=&quot;color: #d4d4d4;&quot;&gt;] &amp;gt;&amp;nbsp;&lt;/span&gt;&lt;span style=&quot;color: #7f7f7f;&quot;&gt;a&lt;/span&gt;&lt;span style=&quot;color: #d4d4d4;&quot;&gt;[&lt;/span&gt;&lt;span style=&quot;color: #c8c8c8;&quot;&gt;j&lt;/span&gt;&lt;span style=&quot;color: #d4d4d4;&quot;&gt; + &lt;/span&gt;&lt;span style=&quot;color: #b5cea8;&quot;&gt;1&lt;/span&gt;&lt;/div&gt;&lt;/div&gt;&lt;br&gt;" style="rhombus;whiteSpace=wrap;html=1;" parent="WIyWlLk6GJQsqaUBKTNV-1" vertex="1">
          <mxGeometry x="1250" y="-1060" width="120" height="80" as="geometry" />
        </mxCell>
        <mxCell id="4MDXBfZJIh8W5gzM78hZ-37" style="edgeStyle=orthogonalEdgeStyle;rounded=0;orthogonalLoop=1;jettySize=auto;html=1;entryX=1;entryY=0.5;entryDx=0;entryDy=0;" parent="WIyWlLk6GJQsqaUBKTNV-1" source="4MDXBfZJIh8W5gzM78hZ-38" target="4MDXBfZJIh8W5gzM78hZ-40" edge="1">
          <mxGeometry relative="1" as="geometry">
            <mxPoint x="1535" y="-830" as="targetPoint" />
            <Array as="points">
              <mxPoint x="1535" y="-910" />
              <mxPoint x="1536" y="-910" />
              <mxPoint x="1536" y="-860" />
            </Array>
          </mxGeometry>
        </mxCell>
        <mxCell id="4MDXBfZJIh8W5gzM78hZ-38" value="&lt;span style=&quot;background-color: rgb(30, 30, 30); font-family: Consolas, &amp;quot;Courier New&amp;quot;, monospace; font-size: 14px; color: rgb(86, 156, 214);&quot;&gt;int&lt;/span&gt;&lt;span style=&quot;background-color: rgb(30, 30, 30); color: rgb(212, 212, 212); font-family: Consolas, &amp;quot;Courier New&amp;quot;, monospace; font-size: 14px;&quot;&gt; &lt;/span&gt;&lt;span style=&quot;background-color: rgb(30, 30, 30); font-family: Consolas, &amp;quot;Courier New&amp;quot;, monospace; font-size: 14px; color: rgb(200, 200, 200);&quot;&gt;temp&lt;/span&gt;&lt;span style=&quot;background-color: rgb(30, 30, 30); color: rgb(212, 212, 212); font-family: Consolas, &amp;quot;Courier New&amp;quot;, monospace; font-size: 14px;&quot;&gt; = &lt;/span&gt;&lt;span style=&quot;background-color: rgb(30, 30, 30); font-family: Consolas, &amp;quot;Courier New&amp;quot;, monospace; font-size: 14px; color: rgb(127, 127, 127);&quot;&gt;a&lt;/span&gt;&lt;span style=&quot;background-color: rgb(30, 30, 30); color: rgb(212, 212, 212); font-family: Consolas, &amp;quot;Courier New&amp;quot;, monospace; font-size: 14px;&quot;&gt;[&lt;/span&gt;&lt;span style=&quot;background-color: rgb(30, 30, 30); font-family: Consolas, &amp;quot;Courier New&amp;quot;, monospace; font-size: 14px; color: rgb(200, 200, 200);&quot;&gt;j&lt;/span&gt;&lt;span style=&quot;background-color: rgb(30, 30, 30); color: rgb(212, 212, 212); font-family: Consolas, &amp;quot;Courier New&amp;quot;, monospace; font-size: 14px;&quot;&gt;]&lt;br&gt;&lt;/span&gt;&lt;span style=&quot;background-color: rgb(30, 30, 30); color: rgb(212, 212, 212); font-family: Consolas, &amp;quot;Courier New&amp;quot;, monospace; font-size: 14px;&quot;&gt;&amp;nbsp;&lt;/span&gt;&lt;span style=&quot;background-color: rgb(30, 30, 30); font-family: Consolas, &amp;quot;Courier New&amp;quot;, monospace; font-size: 14px; color: rgb(127, 127, 127);&quot;&gt;a&lt;/span&gt;&lt;span style=&quot;background-color: rgb(30, 30, 30); color: rgb(212, 212, 212); font-family: Consolas, &amp;quot;Courier New&amp;quot;, monospace; font-size: 14px;&quot;&gt;[&lt;/span&gt;&lt;span style=&quot;background-color: rgb(30, 30, 30); font-family: Consolas, &amp;quot;Courier New&amp;quot;, monospace; font-size: 14px; color: rgb(200, 200, 200);&quot;&gt;j&lt;/span&gt;&lt;span style=&quot;background-color: rgb(30, 30, 30); color: rgb(212, 212, 212); font-family: Consolas, &amp;quot;Courier New&amp;quot;, monospace; font-size: 14px;&quot;&gt;] = &lt;/span&gt;&lt;span style=&quot;background-color: rgb(30, 30, 30); font-family: Consolas, &amp;quot;Courier New&amp;quot;, monospace; font-size: 14px; color: rgb(127, 127, 127);&quot;&gt;a&lt;/span&gt;&lt;span style=&quot;background-color: rgb(30, 30, 30); color: rgb(212, 212, 212); font-family: Consolas, &amp;quot;Courier New&amp;quot;, monospace; font-size: 14px;&quot;&gt;[&lt;/span&gt;&lt;span style=&quot;background-color: rgb(30, 30, 30); font-family: Consolas, &amp;quot;Courier New&amp;quot;, monospace; font-size: 14px; color: rgb(200, 200, 200);&quot;&gt;j&lt;/span&gt;&lt;span style=&quot;background-color: rgb(30, 30, 30); color: rgb(212, 212, 212); font-family: Consolas, &amp;quot;Courier New&amp;quot;, monospace; font-size: 14px;&quot;&gt; + &lt;/span&gt;&lt;span style=&quot;background-color: rgb(30, 30, 30); font-family: Consolas, &amp;quot;Courier New&amp;quot;, monospace; font-size: 14px; color: rgb(181, 206, 168);&quot;&gt;1&lt;/span&gt;&lt;span style=&quot;background-color: rgb(30, 30, 30); color: rgb(212, 212, 212); font-family: Consolas, &amp;quot;Courier New&amp;quot;, monospace; font-size: 14px;&quot;&gt;]&lt;/span&gt;&lt;span style=&quot;background-color: rgb(30, 30, 30); color: rgb(212, 212, 212); font-family: Consolas, &amp;quot;Courier New&amp;quot;, monospace; font-size: 14px;&quot;&gt;&amp;nbsp;&amp;nbsp;&lt;br&gt;&lt;/span&gt;&lt;span style=&quot;background-color: rgb(30, 30, 30); font-family: Consolas, &amp;quot;Courier New&amp;quot;, monospace; font-size: 14px; color: rgb(127, 127, 127);&quot;&gt;a&lt;/span&gt;&lt;span style=&quot;background-color: rgb(30, 30, 30); color: rgb(212, 212, 212); font-family: Consolas, &amp;quot;Courier New&amp;quot;, monospace; font-size: 14px;&quot;&gt;[&lt;/span&gt;&lt;span style=&quot;background-color: rgb(30, 30, 30); font-family: Consolas, &amp;quot;Courier New&amp;quot;, monospace; font-size: 14px; color: rgb(200, 200, 200);&quot;&gt;j&lt;/span&gt;&lt;span style=&quot;background-color: rgb(30, 30, 30); color: rgb(212, 212, 212); font-family: Consolas, &amp;quot;Courier New&amp;quot;, monospace; font-size: 14px;&quot;&gt; + &lt;/span&gt;&lt;span style=&quot;background-color: rgb(30, 30, 30); font-family: Consolas, &amp;quot;Courier New&amp;quot;, monospace; font-size: 14px; color: rgb(181, 206, 168);&quot;&gt;1&lt;/span&gt;&lt;span style=&quot;background-color: rgb(30, 30, 30); color: rgb(212, 212, 212); font-family: Consolas, &amp;quot;Courier New&amp;quot;, monospace; font-size: 14px;&quot;&gt;] = &lt;/span&gt;&lt;span style=&quot;background-color: rgb(30, 30, 30); font-family: Consolas, &amp;quot;Courier New&amp;quot;, monospace; font-size: 14px; color: rgb(200, 200, 200);&quot;&gt;temp&lt;/span&gt;&lt;span style=&quot;background-color: rgb(30, 30, 30); color: rgb(212, 212, 212); font-family: Consolas, &amp;quot;Courier New&amp;quot;, monospace; font-size: 14px;&quot;&gt;&lt;br&gt;&lt;/span&gt;" style="whiteSpace=wrap;html=1;" parent="WIyWlLk6GJQsqaUBKTNV-1" vertex="1">
          <mxGeometry x="1450" y="-1050" width="170" height="60" as="geometry" />
        </mxCell>
        <mxCell id="4MDXBfZJIh8W5gzM78hZ-39" style="edgeStyle=orthogonalEdgeStyle;rounded=0;orthogonalLoop=1;jettySize=auto;html=1;" parent="WIyWlLk6GJQsqaUBKTNV-1" source="4MDXBfZJIh8W5gzM78hZ-40" edge="1">
          <mxGeometry relative="1" as="geometry">
            <mxPoint x="990" y="-1020" as="targetPoint" />
          </mxGeometry>
        </mxCell>
        <mxCell id="4MDXBfZJIh8W5gzM78hZ-40" value="j++" style="whiteSpace=wrap;html=1;" parent="WIyWlLk6GJQsqaUBKTNV-1" vertex="1">
          <mxGeometry x="1250" y="-890" width="120" height="60" as="geometry" />
        </mxCell>
        <mxCell id="4MDXBfZJIh8W5gzM78hZ-41" value="" style="edgeStyle=orthogonalEdgeStyle;rounded=0;orthogonalLoop=1;jettySize=auto;html=1;" parent="WIyWlLk6GJQsqaUBKTNV-1" source="4MDXBfZJIh8W5gzM78hZ-44" target="4MDXBfZJIh8W5gzM78hZ-47" edge="1">
          <mxGeometry relative="1" as="geometry" />
        </mxCell>
        <mxCell id="4MDXBfZJIh8W5gzM78hZ-42" value="true" style="edgeLabel;html=1;align=center;verticalAlign=middle;resizable=0;points=[];" parent="4MDXBfZJIh8W5gzM78hZ-41" vertex="1" connectable="0">
          <mxGeometry x="-0.225" relative="1" as="geometry">
            <mxPoint as="offset" />
          </mxGeometry>
        </mxCell>
        <mxCell id="4MDXBfZJIh8W5gzM78hZ-43" value="" style="edgeStyle=orthogonalEdgeStyle;rounded=0;orthogonalLoop=1;jettySize=auto;html=1;" parent="WIyWlLk6GJQsqaUBKTNV-1" source="4MDXBfZJIh8W5gzM78hZ-44" target="4MDXBfZJIh8W5gzM78hZ-51" edge="1">
          <mxGeometry relative="1" as="geometry" />
        </mxCell>
        <mxCell id="4MDXBfZJIh8W5gzM78hZ-44" value="&#xa;&lt;div style=&quot;color: rgb(212, 212, 212); background-color: rgb(30, 30, 30); font-family: Consolas, &amp;quot;Courier New&amp;quot;, monospace; font-weight: normal; font-size: 14px; line-height: 19px;&quot;&gt;&lt;div&gt;&lt;span style=&quot;color: #c8c8c8;&quot;&gt;i&lt;/span&gt;&lt;span style=&quot;color: #d4d4d4;&quot;&gt; &amp;lt; &lt;/span&gt;&lt;span style=&quot;color: #7f7f7f;&quot;&gt;n&lt;/span&gt;&lt;span style=&quot;color: #d4d4d4;&quot;&gt; - &lt;/span&gt;&lt;span style=&quot;color: #b5cea8;&quot;&gt;1&lt;/span&gt;&lt;/div&gt;&lt;/div&gt;&#xa;&#xa;" style="rhombus;whiteSpace=wrap;html=1;" parent="WIyWlLk6GJQsqaUBKTNV-1" vertex="1">
          <mxGeometry x="860" y="-1060" width="80" height="80" as="geometry" />
        </mxCell>
        <mxCell id="4MDXBfZJIh8W5gzM78hZ-45" value="true" style="edgeStyle=orthogonalEdgeStyle;rounded=0;orthogonalLoop=1;jettySize=auto;html=1;entryX=0;entryY=0.5;entryDx=0;entryDy=0;" parent="WIyWlLk6GJQsqaUBKTNV-1" source="4MDXBfZJIh8W5gzM78hZ-47" target="4MDXBfZJIh8W5gzM78hZ-36" edge="1">
          <mxGeometry relative="1" as="geometry" />
        </mxCell>
        <mxCell id="4MDXBfZJIh8W5gzM78hZ-46" value="false" style="edgeStyle=orthogonalEdgeStyle;rounded=0;orthogonalLoop=1;jettySize=auto;html=1;" parent="WIyWlLk6GJQsqaUBKTNV-1" source="4MDXBfZJIh8W5gzM78hZ-47" target="4MDXBfZJIh8W5gzM78hZ-49" edge="1">
          <mxGeometry relative="1" as="geometry" />
        </mxCell>
        <mxCell id="4MDXBfZJIh8W5gzM78hZ-47" value="&lt;br&gt;&lt;div style=&quot;color: rgb(212, 212, 212); background-color: rgb(30, 30, 30); font-family: Consolas, &amp;quot;Courier New&amp;quot;, monospace; font-weight: normal; font-size: 14px; line-height: 19px;&quot;&gt;&lt;div&gt;&lt;/div&gt;&lt;/div&gt;&lt;div style=&quot;color: rgb(212, 212, 212); background-color: rgb(30, 30, 30); font-family: Consolas, &amp;quot;Courier New&amp;quot;, monospace; font-size: 14px; line-height: 19px;&quot;&gt;&amp;nbsp;j &amp;lt; &lt;span style=&quot;color: #7f7f7f;&quot;&gt;n&lt;/span&gt; - &lt;span style=&quot;color: #c8c8c8;&quot;&gt;i&lt;/span&gt; - &lt;span style=&quot;color: #b5cea8;&quot;&gt;1&lt;/span&gt;&lt;/div&gt;" style="rhombus;whiteSpace=wrap;html=1;" parent="WIyWlLk6GJQsqaUBKTNV-1" vertex="1">
          <mxGeometry x="1020" y="-1060" width="130" height="80" as="geometry" />
        </mxCell>
        <mxCell id="4MDXBfZJIh8W5gzM78hZ-48" style="edgeStyle=orthogonalEdgeStyle;rounded=0;orthogonalLoop=1;jettySize=auto;html=1;" parent="WIyWlLk6GJQsqaUBKTNV-1" source="4MDXBfZJIh8W5gzM78hZ-49" edge="1">
          <mxGeometry relative="1" as="geometry">
            <mxPoint x="840" y="-1020" as="targetPoint" />
          </mxGeometry>
        </mxCell>
        <mxCell id="4MDXBfZJIh8W5gzM78hZ-49" value="i++" style="whiteSpace=wrap;html=1;" parent="WIyWlLk6GJQsqaUBKTNV-1" vertex="1">
          <mxGeometry x="1025" y="-1210" width="120" height="60" as="geometry" />
        </mxCell>
        <mxCell id="4MDXBfZJIh8W5gzM78hZ-51" value="a[i]" style="shape=parallelogram;perimeter=parallelogramPerimeter;whiteSpace=wrap;html=1;fixedSize=1;" parent="WIyWlLk6GJQsqaUBKTNV-1" vertex="1">
          <mxGeometry x="840" y="-670" width="120" height="60" as="geometry" />
        </mxCell>
        <mxCell id="4MDXBfZJIh8W5gzM78hZ-59" value="" style="edgeStyle=orthogonalEdgeStyle;rounded=0;orthogonalLoop=1;jettySize=auto;html=1;" parent="WIyWlLk6GJQsqaUBKTNV-1" source="4MDXBfZJIh8W5gzM78hZ-57" target="4MDXBfZJIh8W5gzM78hZ-58" edge="1">
          <mxGeometry relative="1" as="geometry" />
        </mxCell>
        <mxCell id="4MDXBfZJIh8W5gzM78hZ-57" value="choice" style="shape=parallelogram;perimeter=parallelogramPerimeter;whiteSpace=wrap;html=1;fixedSize=1;" parent="WIyWlLk6GJQsqaUBKTNV-1" vertex="1">
          <mxGeometry x="354" y="489.99999999999955" width="120" height="60" as="geometry" />
        </mxCell>
        <mxCell id="4MDXBfZJIh8W5gzM78hZ-83" value="" style="edgeStyle=orthogonalEdgeStyle;rounded=0;orthogonalLoop=1;jettySize=auto;html=1;" parent="WIyWlLk6GJQsqaUBKTNV-1" source="4MDXBfZJIh8W5gzM78hZ-58" target="4MDXBfZJIh8W5gzM78hZ-82" edge="1">
          <mxGeometry relative="1" as="geometry" />
        </mxCell>
        <mxCell id="4MDXBfZJIh8W5gzM78hZ-58" value="choice==1" style="rhombus;whiteSpace=wrap;html=1;" parent="WIyWlLk6GJQsqaUBKTNV-1" vertex="1">
          <mxGeometry x="374" y="619.9999999999995" width="80" height="80" as="geometry" />
        </mxCell>
        <mxCell id="4MDXBfZJIh8W5gzM78hZ-60" value="" style="edgeStyle=orthogonalEdgeStyle;rounded=0;orthogonalLoop=1;jettySize=auto;html=1;exitX=0.5;exitY=1;exitDx=0;exitDy=0;" parent="WIyWlLk6GJQsqaUBKTNV-1" source="4MDXBfZJIh8W5gzM78hZ-58" target="4MDXBfZJIh8W5gzM78hZ-61" edge="1">
          <mxGeometry relative="1" as="geometry">
            <mxPoint x="414" y="700" as="sourcePoint" />
          </mxGeometry>
        </mxCell>
        <mxCell id="4MDXBfZJIh8W5gzM78hZ-71" value="false" style="edgeLabel;html=1;align=center;verticalAlign=middle;resizable=0;points=[];" parent="4MDXBfZJIh8W5gzM78hZ-60" vertex="1" connectable="0">
          <mxGeometry x="0.0449" relative="1" as="geometry">
            <mxPoint y="-1" as="offset" />
          </mxGeometry>
        </mxCell>
        <mxCell id="4MDXBfZJIh8W5gzM78hZ-100" style="edgeStyle=orthogonalEdgeStyle;rounded=0;orthogonalLoop=1;jettySize=auto;html=1;" parent="WIyWlLk6GJQsqaUBKTNV-1" source="4MDXBfZJIh8W5gzM78hZ-61" target="4MDXBfZJIh8W5gzM78hZ-93" edge="1">
          <mxGeometry relative="1" as="geometry" />
        </mxCell>
        <mxCell id="4MDXBfZJIh8W5gzM78hZ-61" value="choice==2" style="rhombus;whiteSpace=wrap;html=1;" parent="WIyWlLk6GJQsqaUBKTNV-1" vertex="1">
          <mxGeometry x="374" y="959.9999999999995" width="80" height="80" as="geometry" />
        </mxCell>
        <mxCell id="4MDXBfZJIh8W5gzM78hZ-62" value="" style="edgeStyle=orthogonalEdgeStyle;rounded=0;orthogonalLoop=1;jettySize=auto;html=1;exitX=0.5;exitY=1;exitDx=0;exitDy=0;" parent="WIyWlLk6GJQsqaUBKTNV-1" source="4MDXBfZJIh8W5gzM78hZ-61" target="4MDXBfZJIh8W5gzM78hZ-63" edge="1">
          <mxGeometry relative="1" as="geometry">
            <mxPoint x="414" y="1070" as="sourcePoint" />
          </mxGeometry>
        </mxCell>
        <mxCell id="4MDXBfZJIh8W5gzM78hZ-103" value="" style="edgeStyle=orthogonalEdgeStyle;rounded=0;orthogonalLoop=1;jettySize=auto;html=1;" parent="WIyWlLk6GJQsqaUBKTNV-1" source="4MDXBfZJIh8W5gzM78hZ-63" target="4MDXBfZJIh8W5gzM78hZ-102" edge="1">
          <mxGeometry relative="1" as="geometry" />
        </mxCell>
        <mxCell id="4MDXBfZJIh8W5gzM78hZ-63" value="choice==3" style="rhombus;whiteSpace=wrap;html=1;" parent="WIyWlLk6GJQsqaUBKTNV-1" vertex="1">
          <mxGeometry x="374" y="1349.9999999999995" width="80" height="80" as="geometry" />
        </mxCell>
        <mxCell id="4MDXBfZJIh8W5gzM78hZ-64" value="" style="edgeStyle=orthogonalEdgeStyle;rounded=0;orthogonalLoop=1;jettySize=auto;html=1;exitX=0.5;exitY=1;exitDx=0;exitDy=0;" parent="WIyWlLk6GJQsqaUBKTNV-1" source="4MDXBfZJIh8W5gzM78hZ-63" target="4MDXBfZJIh8W5gzM78hZ-65" edge="1">
          <mxGeometry relative="1" as="geometry">
            <mxPoint x="414" y="1500" as="sourcePoint" />
          </mxGeometry>
        </mxCell>
        <mxCell id="4MDXBfZJIh8W5gzM78hZ-130" value="" style="edgeStyle=orthogonalEdgeStyle;rounded=0;orthogonalLoop=1;jettySize=auto;html=1;" parent="WIyWlLk6GJQsqaUBKTNV-1" source="4MDXBfZJIh8W5gzM78hZ-65" target="4MDXBfZJIh8W5gzM78hZ-129" edge="1">
          <mxGeometry relative="1" as="geometry" />
        </mxCell>
        <mxCell id="4MDXBfZJIh8W5gzM78hZ-65" value="choice==4" style="rhombus;whiteSpace=wrap;html=1;" parent="WIyWlLk6GJQsqaUBKTNV-1" vertex="1">
          <mxGeometry x="373" y="1749.9999999999995" width="80" height="80" as="geometry" />
        </mxCell>
        <mxCell id="4MDXBfZJIh8W5gzM78hZ-69" value="" style="edgeStyle=orthogonalEdgeStyle;rounded=0;orthogonalLoop=1;jettySize=auto;html=1;exitX=0.5;exitY=1;exitDx=0;exitDy=0;" parent="WIyWlLk6GJQsqaUBKTNV-1" source="4MDXBfZJIh8W5gzM78hZ-65" target="4MDXBfZJIh8W5gzM78hZ-70" edge="1">
          <mxGeometry relative="1" as="geometry">
            <mxPoint x="413" y="1870" as="sourcePoint" />
          </mxGeometry>
        </mxCell>
        <mxCell id="4MDXBfZJIh8W5gzM78hZ-136" value="" style="edgeStyle=orthogonalEdgeStyle;rounded=0;orthogonalLoop=1;jettySize=auto;html=1;" parent="WIyWlLk6GJQsqaUBKTNV-1" source="4MDXBfZJIh8W5gzM78hZ-70" target="4MDXBfZJIh8W5gzM78hZ-135" edge="1">
          <mxGeometry relative="1" as="geometry" />
        </mxCell>
        <mxCell id="4MDXBfZJIh8W5gzM78hZ-70" value="choice==5" style="rhombus;whiteSpace=wrap;html=1;" parent="WIyWlLk6GJQsqaUBKTNV-1" vertex="1">
          <mxGeometry x="373" y="2129.9999999999995" width="80" height="80" as="geometry" />
        </mxCell>
        <mxCell id="4MDXBfZJIh8W5gzM78hZ-72" value="false" style="edgeLabel;html=1;align=center;verticalAlign=middle;resizable=0;points=[];" parent="WIyWlLk6GJQsqaUBKTNV-1" vertex="1" connectable="0">
          <mxGeometry x="424" y="1330.0028571428575" as="geometry">
            <mxPoint x="-10" y="150" as="offset" />
          </mxGeometry>
        </mxCell>
        <mxCell id="4MDXBfZJIh8W5gzM78hZ-73" value="false" style="edgeLabel;html=1;align=center;verticalAlign=middle;resizable=0;points=[];" parent="WIyWlLk6GJQsqaUBKTNV-1" vertex="1" connectable="0">
          <mxGeometry x="320" y="770.0028571428574" as="geometry">
            <mxPoint x="89" y="307" as="offset" />
          </mxGeometry>
        </mxCell>
        <mxCell id="4MDXBfZJIh8W5gzM78hZ-74" value="false" style="edgeLabel;html=1;align=center;verticalAlign=middle;resizable=0;points=[];" parent="WIyWlLk6GJQsqaUBKTNV-1" vertex="1" connectable="0">
          <mxGeometry x="320" y="1580.0028571428575" as="geometry">
            <mxPoint x="89" y="307" as="offset" />
          </mxGeometry>
        </mxCell>
        <mxCell id="4MDXBfZJIh8W5gzM78hZ-75" value="" style="edgeStyle=orthogonalEdgeStyle;rounded=0;orthogonalLoop=1;jettySize=auto;html=1;exitX=0.5;exitY=1;exitDx=0;exitDy=0;" parent="WIyWlLk6GJQsqaUBKTNV-1" source="4MDXBfZJIh8W5gzM78hZ-70" target="4MDXBfZJIh8W5gzM78hZ-76" edge="1">
          <mxGeometry relative="1" as="geometry">
            <mxPoint x="413" y="2220" as="sourcePoint" />
          </mxGeometry>
        </mxCell>
        <mxCell id="4MDXBfZJIh8W5gzM78hZ-146" style="edgeStyle=orthogonalEdgeStyle;rounded=0;orthogonalLoop=1;jettySize=auto;html=1;" parent="WIyWlLk6GJQsqaUBKTNV-1" source="4MDXBfZJIh8W5gzM78hZ-76" target="4MDXBfZJIh8W5gzM78hZ-145" edge="1">
          <mxGeometry relative="1" as="geometry" />
        </mxCell>
        <mxCell id="4MDXBfZJIh8W5gzM78hZ-158" value="" style="edgeStyle=orthogonalEdgeStyle;rounded=0;orthogonalLoop=1;jettySize=auto;html=1;" parent="WIyWlLk6GJQsqaUBKTNV-1" source="4MDXBfZJIh8W5gzM78hZ-76" target="4MDXBfZJIh8W5gzM78hZ-157" edge="1">
          <mxGeometry relative="1" as="geometry" />
        </mxCell>
        <mxCell id="4MDXBfZJIh8W5gzM78hZ-76" value="choice==6" style="rhombus;whiteSpace=wrap;html=1;" parent="WIyWlLk6GJQsqaUBKTNV-1" vertex="1">
          <mxGeometry x="373" y="2801.9999999999995" width="80" height="80" as="geometry" />
        </mxCell>
        <mxCell id="4MDXBfZJIh8W5gzM78hZ-85" value="" style="edgeStyle=orthogonalEdgeStyle;rounded=0;orthogonalLoop=1;jettySize=auto;html=1;" parent="WIyWlLk6GJQsqaUBKTNV-1" source="4MDXBfZJIh8W5gzM78hZ-82" target="4MDXBfZJIh8W5gzM78hZ-84" edge="1">
          <mxGeometry relative="1" as="geometry" />
        </mxCell>
        <mxCell id="4MDXBfZJIh8W5gzM78hZ-82" value="n&lt;br&gt;i=0" style="shape=parallelogram;perimeter=parallelogramPerimeter;whiteSpace=wrap;html=1;fixedSize=1;" parent="WIyWlLk6GJQsqaUBKTNV-1" vertex="1">
          <mxGeometry x="514" y="629.9999999999995" width="120" height="60" as="geometry" />
        </mxCell>
        <mxCell id="4MDXBfZJIh8W5gzM78hZ-87" value="" style="edgeStyle=orthogonalEdgeStyle;rounded=0;orthogonalLoop=1;jettySize=auto;html=1;" parent="WIyWlLk6GJQsqaUBKTNV-1" source="4MDXBfZJIh8W5gzM78hZ-84" target="4MDXBfZJIh8W5gzM78hZ-86" edge="1">
          <mxGeometry relative="1" as="geometry" />
        </mxCell>
        <mxCell id="4MDXBfZJIh8W5gzM78hZ-91" style="edgeStyle=orthogonalEdgeStyle;rounded=0;orthogonalLoop=1;jettySize=auto;html=1;" parent="WIyWlLk6GJQsqaUBKTNV-1" source="4MDXBfZJIh8W5gzM78hZ-84" edge="1">
          <mxGeometry relative="1" as="geometry">
            <mxPoint x="420" y="450" as="targetPoint" />
            <Array as="points">
              <mxPoint x="775" y="790" />
              <mxPoint x="1670" y="790" />
              <mxPoint x="1670" y="180" />
              <mxPoint x="630" y="180" />
              <mxPoint x="630" y="450" />
            </Array>
          </mxGeometry>
        </mxCell>
        <mxCell id="4MDXBfZJIh8W5gzM78hZ-84" value="i&amp;lt;n" style="rhombus;whiteSpace=wrap;html=1;" parent="WIyWlLk6GJQsqaUBKTNV-1" vertex="1">
          <mxGeometry x="734" y="619.9999999999995" width="80" height="80" as="geometry" />
        </mxCell>
        <mxCell id="4MDXBfZJIh8W5gzM78hZ-89" value="" style="edgeStyle=orthogonalEdgeStyle;rounded=0;orthogonalLoop=1;jettySize=auto;html=1;" parent="WIyWlLk6GJQsqaUBKTNV-1" source="4MDXBfZJIh8W5gzM78hZ-86" target="4MDXBfZJIh8W5gzM78hZ-88" edge="1">
          <mxGeometry relative="1" as="geometry" />
        </mxCell>
        <mxCell id="4MDXBfZJIh8W5gzM78hZ-86" value="a[i]&lt;br&gt;current++" style="shape=parallelogram;perimeter=parallelogramPerimeter;whiteSpace=wrap;html=1;fixedSize=1;" parent="WIyWlLk6GJQsqaUBKTNV-1" vertex="1">
          <mxGeometry x="874" y="629.9999999999995" width="120" height="60" as="geometry" />
        </mxCell>
        <mxCell id="4MDXBfZJIh8W5gzM78hZ-90" style="edgeStyle=orthogonalEdgeStyle;rounded=0;orthogonalLoop=1;jettySize=auto;html=1;" parent="WIyWlLk6GJQsqaUBKTNV-1" source="4MDXBfZJIh8W5gzM78hZ-88" edge="1">
          <mxGeometry relative="1" as="geometry">
            <mxPoint x="690" y="650" as="targetPoint" />
            <Array as="points">
              <mxPoint x="1134" y="511" />
              <mxPoint x="1130" y="511" />
              <mxPoint x="1130" y="500" />
              <mxPoint x="690" y="500" />
            </Array>
          </mxGeometry>
        </mxCell>
        <mxCell id="4MDXBfZJIh8W5gzM78hZ-88" value="i++" style="whiteSpace=wrap;html=1;" parent="WIyWlLk6GJQsqaUBKTNV-1" vertex="1">
          <mxGeometry x="1074" y="629.9999999999995" width="120" height="60" as="geometry" />
        </mxCell>
        <mxCell id="4MDXBfZJIh8W5gzM78hZ-92" value="" style="edgeStyle=orthogonalEdgeStyle;rounded=0;orthogonalLoop=1;jettySize=auto;html=1;" parent="WIyWlLk6GJQsqaUBKTNV-1" source="4MDXBfZJIh8W5gzM78hZ-93" target="4MDXBfZJIh8W5gzM78hZ-95" edge="1">
          <mxGeometry relative="1" as="geometry" />
        </mxCell>
        <mxCell id="4MDXBfZJIh8W5gzM78hZ-101" style="edgeStyle=orthogonalEdgeStyle;rounded=0;orthogonalLoop=1;jettySize=auto;html=1;" parent="WIyWlLk6GJQsqaUBKTNV-1" source="4MDXBfZJIh8W5gzM78hZ-93" edge="1">
          <mxGeometry relative="1" as="geometry">
            <mxPoint x="1670" y="740" as="targetPoint" />
            <Array as="points">
              <mxPoint x="580" y="1170" />
              <mxPoint x="1670" y="1170" />
            </Array>
          </mxGeometry>
        </mxCell>
        <mxCell id="4MDXBfZJIh8W5gzM78hZ-93" value="n&lt;br&gt;i=0" style="shape=parallelogram;perimeter=parallelogramPerimeter;whiteSpace=wrap;html=1;fixedSize=1;" parent="WIyWlLk6GJQsqaUBKTNV-1" vertex="1">
          <mxGeometry x="520" y="979.9999999999995" width="120" height="60" as="geometry" />
        </mxCell>
        <mxCell id="4MDXBfZJIh8W5gzM78hZ-94" value="" style="edgeStyle=orthogonalEdgeStyle;rounded=0;orthogonalLoop=1;jettySize=auto;html=1;" parent="WIyWlLk6GJQsqaUBKTNV-1" source="4MDXBfZJIh8W5gzM78hZ-95" target="4MDXBfZJIh8W5gzM78hZ-97" edge="1">
          <mxGeometry relative="1" as="geometry" />
        </mxCell>
        <mxCell id="4MDXBfZJIh8W5gzM78hZ-95" value="i&amp;lt;n" style="rhombus;whiteSpace=wrap;html=1;" parent="WIyWlLk6GJQsqaUBKTNV-1" vertex="1">
          <mxGeometry x="740" y="969.9999999999995" width="80" height="80" as="geometry" />
        </mxCell>
        <mxCell id="4MDXBfZJIh8W5gzM78hZ-96" value="" style="edgeStyle=orthogonalEdgeStyle;rounded=0;orthogonalLoop=1;jettySize=auto;html=1;" parent="WIyWlLk6GJQsqaUBKTNV-1" source="4MDXBfZJIh8W5gzM78hZ-97" target="4MDXBfZJIh8W5gzM78hZ-99" edge="1">
          <mxGeometry relative="1" as="geometry" />
        </mxCell>
        <mxCell id="4MDXBfZJIh8W5gzM78hZ-97" value="a[i]" style="shape=parallelogram;perimeter=parallelogramPerimeter;whiteSpace=wrap;html=1;fixedSize=1;" parent="WIyWlLk6GJQsqaUBKTNV-1" vertex="1">
          <mxGeometry x="880" y="979.9999999999995" width="120" height="60" as="geometry" />
        </mxCell>
        <mxCell id="4MDXBfZJIh8W5gzM78hZ-98" style="edgeStyle=orthogonalEdgeStyle;rounded=0;orthogonalLoop=1;jettySize=auto;html=1;" parent="WIyWlLk6GJQsqaUBKTNV-1" source="4MDXBfZJIh8W5gzM78hZ-99" edge="1">
          <mxGeometry relative="1" as="geometry">
            <mxPoint x="696" y="1000" as="targetPoint" />
            <Array as="points">
              <mxPoint x="1140" y="861" />
              <mxPoint x="1136" y="861" />
              <mxPoint x="1136" y="850" />
              <mxPoint x="696" y="850" />
            </Array>
          </mxGeometry>
        </mxCell>
        <mxCell id="4MDXBfZJIh8W5gzM78hZ-99" value="i++" style="whiteSpace=wrap;html=1;" parent="WIyWlLk6GJQsqaUBKTNV-1" vertex="1">
          <mxGeometry x="1080" y="979.9999999999995" width="120" height="60" as="geometry" />
        </mxCell>
        <mxCell id="4MDXBfZJIh8W5gzM78hZ-105" value="" style="edgeStyle=orthogonalEdgeStyle;rounded=0;orthogonalLoop=1;jettySize=auto;html=1;" parent="WIyWlLk6GJQsqaUBKTNV-1" source="4MDXBfZJIh8W5gzM78hZ-102" target="4MDXBfZJIh8W5gzM78hZ-104" edge="1">
          <mxGeometry relative="1" as="geometry" />
        </mxCell>
        <mxCell id="4MDXBfZJIh8W5gzM78hZ-102" value="&lt;br&gt;&lt;div style=&quot;color: rgb(212, 212, 212); background-color: rgb(30, 30, 30); font-family: Consolas, &amp;quot;Courier New&amp;quot;, monospace; font-weight: normal; font-size: 14px; line-height: 19px;&quot;&gt;&lt;div&gt;&lt;span style=&quot;color: #c8c8c8;&quot;&gt;add_value&lt;/span&gt;&lt;/div&gt;&lt;div&gt;&lt;div style=&quot;line-height: 19px;&quot;&gt;add_index&lt;/div&gt;&lt;/div&gt;&lt;div style=&quot;line-height: 19px;&quot;&gt;&lt;br&gt;&lt;/div&gt;&lt;/div&gt;" style="shape=parallelogram;perimeter=parallelogramPerimeter;whiteSpace=wrap;html=1;fixedSize=1;" parent="WIyWlLk6GJQsqaUBKTNV-1" vertex="1">
          <mxGeometry x="530" y="1340" width="176" height="100" as="geometry" />
        </mxCell>
        <mxCell id="4MDXBfZJIh8W5gzM78hZ-107" value="" style="edgeStyle=orthogonalEdgeStyle;rounded=0;orthogonalLoop=1;jettySize=auto;html=1;" parent="WIyWlLk6GJQsqaUBKTNV-1" source="4MDXBfZJIh8W5gzM78hZ-104" target="4MDXBfZJIh8W5gzM78hZ-106" edge="1">
          <mxGeometry relative="1" as="geometry" />
        </mxCell>
        <mxCell id="4MDXBfZJIh8W5gzM78hZ-127" value="" style="edgeStyle=orthogonalEdgeStyle;rounded=0;orthogonalLoop=1;jettySize=auto;html=1;" parent="WIyWlLk6GJQsqaUBKTNV-1" source="4MDXBfZJIh8W5gzM78hZ-104" target="4MDXBfZJIh8W5gzM78hZ-126" edge="1">
          <mxGeometry relative="1" as="geometry" />
        </mxCell>
        <mxCell id="4MDXBfZJIh8W5gzM78hZ-104" value="&#xa;&lt;div style=&quot;color: rgb(212, 212, 212); background-color: rgb(30, 30, 30); font-family: Consolas, &amp;quot;Courier New&amp;quot;, monospace; font-weight: normal; font-size: 14px; line-height: 19px;&quot;&gt;&lt;div&gt;&lt;span style=&quot;color: #c8c8c8;&quot;&gt;add_index&lt;/span&gt;&lt;span style=&quot;color: #d4d4d4;&quot;&gt; &amp;lt; &lt;/span&gt;&lt;span style=&quot;color: #c8c8c8;&quot;&gt;current&lt;/span&gt;&lt;/div&gt;&lt;/div&gt;&#xa;&#xa;" style="rhombus;whiteSpace=wrap;html=1;" parent="WIyWlLk6GJQsqaUBKTNV-1" vertex="1">
          <mxGeometry x="839" y="1330" width="186" height="120" as="geometry" />
        </mxCell>
        <mxCell id="4MDXBfZJIh8W5gzM78hZ-109" value="" style="edgeStyle=orthogonalEdgeStyle;rounded=0;orthogonalLoop=1;jettySize=auto;html=1;" parent="WIyWlLk6GJQsqaUBKTNV-1" source="4MDXBfZJIh8W5gzM78hZ-106" target="4MDXBfZJIh8W5gzM78hZ-108" edge="1">
          <mxGeometry relative="1" as="geometry" />
        </mxCell>
        <mxCell id="4MDXBfZJIh8W5gzM78hZ-106" value="i=0" style="whiteSpace=wrap;html=1;" parent="WIyWlLk6GJQsqaUBKTNV-1" vertex="1">
          <mxGeometry x="1138" y="1360" width="120" height="60" as="geometry" />
        </mxCell>
        <mxCell id="4MDXBfZJIh8W5gzM78hZ-111" value="" style="edgeStyle=orthogonalEdgeStyle;rounded=0;orthogonalLoop=1;jettySize=auto;html=1;" parent="WIyWlLk6GJQsqaUBKTNV-1" source="4MDXBfZJIh8W5gzM78hZ-108" target="4MDXBfZJIh8W5gzM78hZ-110" edge="1">
          <mxGeometry relative="1" as="geometry" />
        </mxCell>
        <mxCell id="4MDXBfZJIh8W5gzM78hZ-123" value="" style="edgeStyle=orthogonalEdgeStyle;rounded=0;orthogonalLoop=1;jettySize=auto;html=1;" parent="WIyWlLk6GJQsqaUBKTNV-1" source="4MDXBfZJIh8W5gzM78hZ-108" target="4MDXBfZJIh8W5gzM78hZ-122" edge="1">
          <mxGeometry relative="1" as="geometry" />
        </mxCell>
        <mxCell id="4MDXBfZJIh8W5gzM78hZ-108" value="&#xa;&lt;div style=&quot;color: rgb(212, 212, 212); background-color: rgb(30, 30, 30); font-family: Consolas, &amp;quot;Courier New&amp;quot;, monospace; font-weight: normal; font-size: 14px; line-height: 19px;&quot;&gt;&lt;div&gt;&lt;span style=&quot;color: #c8c8c8;&quot;&gt;i&lt;/span&gt;&lt;span style=&quot;color: #d4d4d4;&quot;&gt; &amp;gt;= &lt;/span&gt;&lt;span style=&quot;color: #c8c8c8;&quot;&gt;add_index&lt;/span&gt;&lt;/div&gt;&lt;/div&gt;&#xa;&#xa;" style="rhombus;whiteSpace=wrap;html=1;" parent="WIyWlLk6GJQsqaUBKTNV-1" vertex="1">
          <mxGeometry x="1358" y="1350" width="152" height="90" as="geometry" />
        </mxCell>
        <mxCell id="4MDXBfZJIh8W5gzM78hZ-114" value="" style="edgeStyle=orthogonalEdgeStyle;rounded=0;orthogonalLoop=1;jettySize=auto;html=1;" parent="WIyWlLk6GJQsqaUBKTNV-1" source="4MDXBfZJIh8W5gzM78hZ-110" target="4MDXBfZJIh8W5gzM78hZ-113" edge="1">
          <mxGeometry relative="1" as="geometry" />
        </mxCell>
        <mxCell id="4MDXBfZJIh8W5gzM78hZ-110" value="&#xa;&lt;div style=&quot;color: rgb(212, 212, 212); background-color: rgb(30, 30, 30); font-family: Consolas, &amp;quot;Courier New&amp;quot;, monospace; font-weight: normal; font-size: 14px; line-height: 19px;&quot;&gt;&lt;div&gt;&lt;span style=&quot;color: #c8c8c8;&quot;&gt;a&lt;/span&gt;&lt;span style=&quot;color: #d4d4d4;&quot;&gt;[&lt;/span&gt;&lt;span style=&quot;color: #c8c8c8;&quot;&gt;i&lt;/span&gt;&lt;span style=&quot;color: #d4d4d4;&quot;&gt;] = &lt;/span&gt;&lt;span style=&quot;color: #c8c8c8;&quot;&gt;a&lt;/span&gt;&lt;span style=&quot;color: #d4d4d4;&quot;&gt;[&lt;/span&gt;&lt;span style=&quot;color: #c8c8c8;&quot;&gt;i&lt;/span&gt;&lt;span style=&quot;color: #d4d4d4;&quot;&gt; - &lt;/span&gt;&lt;span style=&quot;color: #b5cea8;&quot;&gt;1&lt;/span&gt;&lt;span style=&quot;color: #d4d4d4;&quot;&gt;];&lt;/span&gt;&lt;/div&gt;&lt;/div&gt;&#xa;&#xa;" style="whiteSpace=wrap;html=1;" parent="WIyWlLk6GJQsqaUBKTNV-1" vertex="1">
          <mxGeometry x="1606" y="1365" width="154" height="65" as="geometry" />
        </mxCell>
        <mxCell id="4MDXBfZJIh8W5gzM78hZ-118" value="" style="edgeStyle=orthogonalEdgeStyle;rounded=0;orthogonalLoop=1;jettySize=auto;html=1;" parent="WIyWlLk6GJQsqaUBKTNV-1" source="4MDXBfZJIh8W5gzM78hZ-113" target="4MDXBfZJIh8W5gzM78hZ-120" edge="1">
          <mxGeometry relative="1" as="geometry">
            <mxPoint x="2050" y="1404" as="targetPoint" />
          </mxGeometry>
        </mxCell>
        <mxCell id="4MDXBfZJIh8W5gzM78hZ-113" value="&#xa;&lt;div style=&quot;color: rgb(212, 212, 212); background-color: rgb(30, 30, 30); font-family: Consolas, &amp;quot;Courier New&amp;quot;, monospace; font-weight: normal; font-size: 14px; line-height: 19px;&quot;&gt;&lt;div&gt;&lt;span style=&quot;color: #c8c8c8;&quot;&gt;i&lt;/span&gt;&lt;span style=&quot;color: #d4d4d4;&quot;&gt; == &lt;/span&gt;&lt;span style=&quot;color: #c8c8c8;&quot;&gt;add_index&lt;/span&gt;&lt;/div&gt;&lt;/div&gt;&#xa;&#xa;" style="rhombus;whiteSpace=wrap;html=1;" parent="WIyWlLk6GJQsqaUBKTNV-1" vertex="1">
          <mxGeometry x="1877" y="1357.5" width="113" height="92.5" as="geometry" />
        </mxCell>
        <mxCell id="4MDXBfZJIh8W5gzM78hZ-119" style="edgeStyle=orthogonalEdgeStyle;rounded=0;orthogonalLoop=1;jettySize=auto;html=1;" parent="WIyWlLk6GJQsqaUBKTNV-1" source="4MDXBfZJIh8W5gzM78hZ-117" edge="1">
          <mxGeometry relative="1" as="geometry">
            <mxPoint x="1310" y="1400" as="targetPoint" />
            <Array as="points">
              <mxPoint x="2360" y="1280" />
              <mxPoint x="1310" y="1280" />
            </Array>
          </mxGeometry>
        </mxCell>
        <mxCell id="4MDXBfZJIh8W5gzM78hZ-117" value="i--" style="whiteSpace=wrap;html=1;" parent="WIyWlLk6GJQsqaUBKTNV-1" vertex="1">
          <mxGeometry x="2290" y="1370" width="120" height="60" as="geometry" />
        </mxCell>
        <mxCell id="4MDXBfZJIh8W5gzM78hZ-121" style="edgeStyle=orthogonalEdgeStyle;rounded=0;orthogonalLoop=1;jettySize=auto;html=1;entryX=0;entryY=0.5;entryDx=0;entryDy=0;" parent="WIyWlLk6GJQsqaUBKTNV-1" source="4MDXBfZJIh8W5gzM78hZ-120" target="4MDXBfZJIh8W5gzM78hZ-117" edge="1">
          <mxGeometry relative="1" as="geometry" />
        </mxCell>
        <mxCell id="4MDXBfZJIh8W5gzM78hZ-120" value="&#xa;&lt;div style=&quot;color: rgb(212, 212, 212); background-color: rgb(30, 30, 30); font-family: Consolas, &amp;quot;Courier New&amp;quot;, monospace; font-weight: normal; font-size: 14px; line-height: 19px;&quot;&gt;&lt;div&gt;&lt;span style=&quot;color: #d4d4d4;&quot;&gt;&amp;nbsp;&lt;/span&gt;&lt;span style=&quot;color: #c8c8c8;&quot;&gt;a&lt;/span&gt;&lt;span style=&quot;color: #d4d4d4;&quot;&gt;[&lt;/span&gt;&lt;span style=&quot;color: #c8c8c8;&quot;&gt;i&lt;/span&gt;&lt;span style=&quot;color: #d4d4d4;&quot;&gt;] = &lt;/span&gt;&lt;span style=&quot;color: #c8c8c8;&quot;&gt;add_value&lt;/span&gt;&lt;span style=&quot;color: #d4d4d4;&quot;&gt;;&lt;/span&gt;&lt;/div&gt;&lt;/div&gt;&#xa;&#xa;" style="rounded=1;whiteSpace=wrap;html=1;" parent="WIyWlLk6GJQsqaUBKTNV-1" vertex="1">
          <mxGeometry x="2066.9999999999995" y="1373.75" width="120" height="60" as="geometry" />
        </mxCell>
        <mxCell id="4MDXBfZJIh8W5gzM78hZ-124" style="edgeStyle=orthogonalEdgeStyle;rounded=0;orthogonalLoop=1;jettySize=auto;html=1;" parent="WIyWlLk6GJQsqaUBKTNV-1" source="4MDXBfZJIh8W5gzM78hZ-122" edge="1">
          <mxGeometry relative="1" as="geometry">
            <mxPoint x="1670" y="820" as="targetPoint" />
            <Array as="points">
              <mxPoint x="2791" y="1568" />
              <mxPoint x="2791" y="820" />
            </Array>
          </mxGeometry>
        </mxCell>
        <mxCell id="4MDXBfZJIh8W5gzM78hZ-122" value="&#xa;&lt;div style=&quot;color: rgb(212, 212, 212); background-color: rgb(30, 30, 30); font-family: Consolas, &amp;quot;Courier New&amp;quot;, monospace; font-weight: normal; font-size: 14px; line-height: 19px;&quot;&gt;&lt;div&gt;&lt;span style=&quot;color: #d4d4d4;&quot;&gt;&amp;nbsp; &lt;/span&gt;&lt;span style=&quot;color: #c8c8c8;&quot;&gt;countArrange&lt;/span&gt;&lt;span style=&quot;color: #d4d4d4;&quot;&gt; = &lt;/span&gt;&lt;span style=&quot;color: #b5cea8;&quot;&gt;0&lt;/span&gt;&lt;span style=&quot;color: #d4d4d4;&quot;&gt;;&lt;/span&gt;&lt;/div&gt;&lt;/div&gt;&#xa;&#xa;" style="whiteSpace=wrap;html=1;" parent="WIyWlLk6GJQsqaUBKTNV-1" vertex="1">
          <mxGeometry x="1374" y="1535" width="166" height="65" as="geometry" />
        </mxCell>
        <mxCell id="4MDXBfZJIh8W5gzM78hZ-128" style="edgeStyle=orthogonalEdgeStyle;rounded=0;orthogonalLoop=1;jettySize=auto;html=1;entryX=0;entryY=0.5;entryDx=0;entryDy=0;" parent="WIyWlLk6GJQsqaUBKTNV-1" source="4MDXBfZJIh8W5gzM78hZ-126" target="4MDXBfZJIh8W5gzM78hZ-122" edge="1">
          <mxGeometry relative="1" as="geometry" />
        </mxCell>
        <mxCell id="4MDXBfZJIh8W5gzM78hZ-126" value="&#xa;&lt;div style=&quot;color: rgb(212, 212, 212); background-color: rgb(30, 30, 30); font-family: Consolas, &amp;quot;Courier New&amp;quot;, monospace; font-weight: normal; font-size: 14px; line-height: 19px;&quot;&gt;&lt;div&gt;&lt;span style=&quot;color: #d4d4d4;&quot;&gt;&amp;nbsp; &lt;/span&gt;&lt;span style=&quot;color: #c8c8c8;&quot;&gt;a&lt;/span&gt;&lt;span style=&quot;color: #d4d4d4;&quot;&gt;[&lt;/span&gt;&lt;span style=&quot;color: #c8c8c8;&quot;&gt;add_index&lt;/span&gt;&lt;span style=&quot;color: #d4d4d4;&quot;&gt;] = &lt;/span&gt;&lt;span style=&quot;color: #c8c8c8;&quot;&gt;add_value&lt;/span&gt;&lt;span style=&quot;color: #d4d4d4;&quot;&gt;;&lt;/span&gt;&lt;/div&gt;&lt;/div&gt;&#xa;&#xa;" style="whiteSpace=wrap;html=1;" parent="WIyWlLk6GJQsqaUBKTNV-1" vertex="1">
          <mxGeometry x="872" y="1560" width="120" height="60" as="geometry" />
        </mxCell>
        <mxCell id="4MDXBfZJIh8W5gzM78hZ-132" value="" style="edgeStyle=orthogonalEdgeStyle;rounded=0;orthogonalLoop=1;jettySize=auto;html=1;" parent="WIyWlLk6GJQsqaUBKTNV-1" source="4MDXBfZJIh8W5gzM78hZ-129" target="4MDXBfZJIh8W5gzM78hZ-131" edge="1">
          <mxGeometry relative="1" as="geometry" />
        </mxCell>
        <mxCell id="4MDXBfZJIh8W5gzM78hZ-129" value="&lt;br&gt;&lt;div style=&quot;color: rgb(212, 212, 212); background-color: rgb(30, 30, 30); font-family: Consolas, &amp;quot;Courier New&amp;quot;, monospace; font-weight: normal; font-size: 14px; line-height: 19px;&quot;&gt;&lt;div&gt;&lt;span style=&quot;color: #d4d4d4;&quot;&gt;&amp;nbsp; &lt;/span&gt;&lt;span style=&quot;color: #d4d4d4;&quot;&gt;&amp;nbsp;&lt;/span&gt;&lt;span style=&quot;color: #c8c8c8;&quot;&gt;update_index&lt;/span&gt;&lt;span style=&quot;color: #d4d4d4;&quot;&gt;, &lt;/span&gt;&lt;span style=&quot;color: #c8c8c8;&quot;&gt;update_value&lt;/span&gt;&lt;span style=&quot;color: #d4d4d4;&quot;&gt;;&lt;/span&gt;&lt;/div&gt;&lt;/div&gt;&lt;br&gt;" style="shape=parallelogram;perimeter=parallelogramPerimeter;whiteSpace=wrap;html=1;fixedSize=1;" parent="WIyWlLk6GJQsqaUBKTNV-1" vertex="1">
          <mxGeometry x="513" y="1760" width="267" height="80" as="geometry" />
        </mxCell>
        <mxCell id="4MDXBfZJIh8W5gzM78hZ-131" value="&#xa;&lt;div style=&quot;color: rgb(212, 212, 212); background-color: rgb(30, 30, 30); font-family: Consolas, &amp;quot;Courier New&amp;quot;, monospace; font-weight: normal; font-size: 14px; line-height: 19px;&quot;&gt;&lt;div&gt;&lt;span style=&quot;color: #c8c8c8;&quot;&gt;a&lt;/span&gt;&lt;span style=&quot;color: #d4d4d4;&quot;&gt;[&lt;/span&gt;&lt;span style=&quot;color: #c8c8c8;&quot;&gt;update_index&lt;/span&gt;&lt;span style=&quot;color: #d4d4d4;&quot;&gt;] = &lt;/span&gt;&lt;span style=&quot;color: #c8c8c8;&quot;&gt;update_value&lt;/span&gt;&lt;span style=&quot;color: #d4d4d4;&quot;&gt;;&lt;/span&gt;&lt;/div&gt;&lt;/div&gt;&#xa;&#xa;" style="whiteSpace=wrap;html=1;" parent="WIyWlLk6GJQsqaUBKTNV-1" vertex="1">
          <mxGeometry x="933.5" y="1770" width="236.5" height="60" as="geometry" />
        </mxCell>
        <mxCell id="4MDXBfZJIh8W5gzM78hZ-138" value="" style="edgeStyle=orthogonalEdgeStyle;rounded=0;orthogonalLoop=1;jettySize=auto;html=1;" parent="WIyWlLk6GJQsqaUBKTNV-1" source="4MDXBfZJIh8W5gzM78hZ-135" target="4MDXBfZJIh8W5gzM78hZ-137" edge="1">
          <mxGeometry relative="1" as="geometry" />
        </mxCell>
        <mxCell id="4MDXBfZJIh8W5gzM78hZ-135" value="deleteInxdex" style="shape=parallelogram;perimeter=parallelogramPerimeter;whiteSpace=wrap;html=1;fixedSize=1;" parent="WIyWlLk6GJQsqaUBKTNV-1" vertex="1">
          <mxGeometry x="513" y="2139.9999999999995" width="120" height="60" as="geometry" />
        </mxCell>
        <mxCell id="4MDXBfZJIh8W5gzM78hZ-140" value="" style="edgeStyle=orthogonalEdgeStyle;rounded=0;orthogonalLoop=1;jettySize=auto;html=1;" parent="WIyWlLk6GJQsqaUBKTNV-1" source="4MDXBfZJIh8W5gzM78hZ-137" target="4MDXBfZJIh8W5gzM78hZ-139" edge="1">
          <mxGeometry relative="1" as="geometry" />
        </mxCell>
        <mxCell id="4MDXBfZJIh8W5gzM78hZ-137" value="&#xa;&lt;div style=&quot;color: rgb(212, 212, 212); background-color: rgb(30, 30, 30); font-family: Consolas, &amp;quot;Courier New&amp;quot;, monospace; font-weight: normal; font-size: 14px; line-height: 19px;&quot;&gt;&lt;div&gt;&lt;span style=&quot;color: #c8c8c8;&quot;&gt;i&lt;/span&gt;&lt;span style=&quot;color: #d4d4d4;&quot;&gt; = &lt;/span&gt;&lt;span style=&quot;color: #c8c8c8;&quot;&gt;delete_index&lt;/span&gt;&lt;span style=&quot;color: #d4d4d4;&quot;&gt; - &lt;/span&gt;&lt;span style=&quot;color: #b5cea8;&quot;&gt;1&lt;/span&gt;&lt;span style=&quot;color: #d4d4d4;&quot;&gt;;&lt;/span&gt;&lt;/div&gt;&lt;/div&gt;&#xa;&#xa;" style="whiteSpace=wrap;html=1;" parent="WIyWlLk6GJQsqaUBKTNV-1" vertex="1">
          <mxGeometry x="713" y="2140" width="197" height="70" as="geometry" />
        </mxCell>
        <mxCell id="4MDXBfZJIh8W5gzM78hZ-142" value="" style="edgeStyle=orthogonalEdgeStyle;rounded=0;orthogonalLoop=1;jettySize=auto;html=1;" parent="WIyWlLk6GJQsqaUBKTNV-1" source="4MDXBfZJIh8W5gzM78hZ-139" target="4MDXBfZJIh8W5gzM78hZ-141" edge="1">
          <mxGeometry relative="1" as="geometry" />
        </mxCell>
        <mxCell id="4MDXBfZJIh8W5gzM78hZ-144" style="edgeStyle=orthogonalEdgeStyle;rounded=0;orthogonalLoop=1;jettySize=auto;html=1;" parent="WIyWlLk6GJQsqaUBKTNV-1" source="4MDXBfZJIh8W5gzM78hZ-139" edge="1">
          <mxGeometry relative="1" as="geometry">
            <mxPoint x="2795" y="1470" as="targetPoint" />
            <Array as="points">
              <mxPoint x="1114" y="2400" />
              <mxPoint x="2795" y="2400" />
            </Array>
          </mxGeometry>
        </mxCell>
        <mxCell id="4MDXBfZJIh8W5gzM78hZ-139" value="&#xa;&lt;div style=&quot;color: rgb(212, 212, 212); background-color: rgb(30, 30, 30); font-family: Consolas, &amp;quot;Courier New&amp;quot;, monospace; font-weight: normal; font-size: 14px; line-height: 19px;&quot;&gt;&lt;div&gt;&lt;span style=&quot;color: #c8c8c8;&quot;&gt;i&lt;/span&gt;&lt;span style=&quot;color: #d4d4d4;&quot;&gt; &amp;lt; &lt;/span&gt;&lt;span style=&quot;color: #c8c8c8;&quot;&gt;current&lt;/span&gt;&lt;span style=&quot;color: #d4d4d4;&quot;&gt; - &lt;/span&gt;&lt;span style=&quot;color: #b5cea8;&quot;&gt;1&lt;/span&gt;&lt;span style=&quot;color: #d4d4d4;&quot;&gt;;&lt;/span&gt;&lt;/div&gt;&lt;/div&gt;&#xa;&#xa;" style="rhombus;whiteSpace=wrap;html=1;" parent="WIyWlLk6GJQsqaUBKTNV-1" vertex="1">
          <mxGeometry x="1048.5" y="2135" width="131.5" height="105" as="geometry" />
        </mxCell>
        <mxCell id="4MDXBfZJIh8W5gzM78hZ-143" style="edgeStyle=orthogonalEdgeStyle;rounded=0;orthogonalLoop=1;jettySize=auto;html=1;" parent="WIyWlLk6GJQsqaUBKTNV-1" source="4MDXBfZJIh8W5gzM78hZ-141" edge="1">
          <mxGeometry relative="1" as="geometry">
            <mxPoint x="1010" y="2179" as="targetPoint" />
            <Array as="points">
              <mxPoint x="1353" y="2090" />
              <mxPoint x="1010" y="2090" />
            </Array>
          </mxGeometry>
        </mxCell>
        <mxCell id="4MDXBfZJIh8W5gzM78hZ-141" value="&lt;br&gt;&lt;div style=&quot;color: rgb(212, 212, 212); background-color: rgb(30, 30, 30); font-family: Consolas, &amp;quot;Courier New&amp;quot;, monospace; font-weight: normal; font-size: 14px; line-height: 19px;&quot;&gt;&lt;div&gt;&lt;span style=&quot;color: #d4d4d4;&quot;&gt;&amp;nbsp;&lt;/span&gt;&lt;span style=&quot;color: #c8c8c8;&quot;&gt;a&lt;/span&gt;&lt;span style=&quot;color: #d4d4d4;&quot;&gt;[&lt;/span&gt;&lt;span style=&quot;color: #c8c8c8;&quot;&gt;i&lt;/span&gt;&lt;span style=&quot;color: #d4d4d4;&quot;&gt;] = &lt;/span&gt;&lt;span style=&quot;color: #c8c8c8;&quot;&gt;a&lt;/span&gt;&lt;span style=&quot;color: #d4d4d4;&quot;&gt;[&lt;/span&gt;&lt;span style=&quot;color: #c8c8c8;&quot;&gt;i&lt;/span&gt;&lt;span style=&quot;color: #d4d4d4;&quot;&gt; + &lt;/span&gt;&lt;span style=&quot;color: #b5cea8;&quot;&gt;1&lt;/span&gt;&lt;span style=&quot;color: #d4d4d4;&quot;&gt;];&lt;/span&gt;&lt;/div&gt;&lt;/div&gt;i++&lt;br&gt;" style="whiteSpace=wrap;html=1;" parent="WIyWlLk6GJQsqaUBKTNV-1" vertex="1">
          <mxGeometry x="1265.75" y="2157.5" width="174.25" height="42.5" as="geometry" />
        </mxCell>
        <mxCell id="4MDXBfZJIh8W5gzM78hZ-148" value="" style="edgeStyle=orthogonalEdgeStyle;rounded=0;orthogonalLoop=1;jettySize=auto;html=1;" parent="WIyWlLk6GJQsqaUBKTNV-1" source="4MDXBfZJIh8W5gzM78hZ-145" target="4MDXBfZJIh8W5gzM78hZ-147" edge="1">
          <mxGeometry relative="1" as="geometry" />
        </mxCell>
        <mxCell id="4MDXBfZJIh8W5gzM78hZ-145" value="choice" style="shape=parallelogram;perimeter=parallelogramPerimeter;whiteSpace=wrap;html=1;fixedSize=1;" parent="WIyWlLk6GJQsqaUBKTNV-1" vertex="1">
          <mxGeometry x="570" y="2812" width="120" height="60" as="geometry" />
        </mxCell>
        <mxCell id="4MDXBfZJIh8W5gzM78hZ-150" value="" style="edgeStyle=orthogonalEdgeStyle;rounded=0;orthogonalLoop=1;jettySize=auto;html=1;" parent="WIyWlLk6GJQsqaUBKTNV-1" source="4MDXBfZJIh8W5gzM78hZ-147" target="4MDXBfZJIh8W5gzM78hZ-149" edge="1">
          <mxGeometry relative="1" as="geometry" />
        </mxCell>
        <mxCell id="4MDXBfZJIh8W5gzM78hZ-152" value="" style="edgeStyle=orthogonalEdgeStyle;rounded=0;orthogonalLoop=1;jettySize=auto;html=1;" parent="WIyWlLk6GJQsqaUBKTNV-1" source="4MDXBfZJIh8W5gzM78hZ-147" target="4MDXBfZJIh8W5gzM78hZ-151" edge="1">
          <mxGeometry relative="1" as="geometry" />
        </mxCell>
        <mxCell id="4MDXBfZJIh8W5gzM78hZ-147" value="choice==1" style="rhombus;whiteSpace=wrap;html=1;" parent="WIyWlLk6GJQsqaUBKTNV-1" vertex="1">
          <mxGeometry x="790" y="2802" width="80" height="80" as="geometry" />
        </mxCell>
        <mxCell id="4MDXBfZJIh8W5gzM78hZ-154" value="" style="edgeStyle=orthogonalEdgeStyle;rounded=0;orthogonalLoop=1;jettySize=auto;html=1;" parent="WIyWlLk6GJQsqaUBKTNV-1" source="4MDXBfZJIh8W5gzM78hZ-149" target="4MDXBfZJIh8W5gzM78hZ-153" edge="1">
          <mxGeometry relative="1" as="geometry" />
        </mxCell>
        <mxCell id="4MDXBfZJIh8W5gzM78hZ-149" value="choice==2" style="rhombus;whiteSpace=wrap;html=1;" parent="WIyWlLk6GJQsqaUBKTNV-1" vertex="1">
          <mxGeometry x="790" y="2962" width="80" height="80" as="geometry" />
        </mxCell>
        <mxCell id="4MDXBfZJIh8W5gzM78hZ-155" style="edgeStyle=orthogonalEdgeStyle;rounded=0;orthogonalLoop=1;jettySize=auto;html=1;" parent="WIyWlLk6GJQsqaUBKTNV-1" source="4MDXBfZJIh8W5gzM78hZ-159" edge="1">
          <mxGeometry relative="1" as="geometry">
            <mxPoint x="2790" y="2386.6666666666665" as="targetPoint" />
          </mxGeometry>
        </mxCell>
        <mxCell id="4MDXBfZJIh8W5gzM78hZ-151" value="increase(a,current)" style="whiteSpace=wrap;html=1;" parent="WIyWlLk6GJQsqaUBKTNV-1" vertex="1">
          <mxGeometry x="930" y="2812" width="120" height="60" as="geometry" />
        </mxCell>
        <mxCell id="4MDXBfZJIh8W5gzM78hZ-156" style="edgeStyle=orthogonalEdgeStyle;rounded=0;orthogonalLoop=1;jettySize=auto;html=1;exitX=1;exitY=0.5;exitDx=0;exitDy=0;" parent="WIyWlLk6GJQsqaUBKTNV-1" source="4MDXBfZJIh8W5gzM78hZ-153" edge="1">
          <mxGeometry relative="1" as="geometry">
            <mxPoint x="1338" y="2882" as="targetPoint" />
            <mxPoint x="1138" y="3044" as="sourcePoint" />
          </mxGeometry>
        </mxCell>
        <mxCell id="4MDXBfZJIh8W5gzM78hZ-153" value="decrease(a,current)" style="whiteSpace=wrap;html=1;" parent="WIyWlLk6GJQsqaUBKTNV-1" vertex="1">
          <mxGeometry x="930" y="2972" width="120" height="60" as="geometry" />
        </mxCell>
        <mxCell id="4MDXBfZJIh8W5gzM78hZ-162" value="" style="edgeStyle=orthogonalEdgeStyle;rounded=0;orthogonalLoop=1;jettySize=auto;html=1;" parent="WIyWlLk6GJQsqaUBKTNV-1" source="4MDXBfZJIh8W5gzM78hZ-157" target="4MDXBfZJIh8W5gzM78hZ-161" edge="1">
          <mxGeometry relative="1" as="geometry" />
        </mxCell>
        <mxCell id="4MDXBfZJIh8W5gzM78hZ-157" value="choice==7" style="rhombus;whiteSpace=wrap;html=1;" parent="WIyWlLk6GJQsqaUBKTNV-1" vertex="1">
          <mxGeometry x="374" y="3259.9999999999995" width="80" height="80" as="geometry" />
        </mxCell>
        <mxCell id="4MDXBfZJIh8W5gzM78hZ-160" value="" style="edgeStyle=orthogonalEdgeStyle;rounded=0;orthogonalLoop=1;jettySize=auto;html=1;" parent="WIyWlLk6GJQsqaUBKTNV-1" source="4MDXBfZJIh8W5gzM78hZ-151" target="4MDXBfZJIh8W5gzM78hZ-159" edge="1">
          <mxGeometry relative="1" as="geometry">
            <mxPoint x="2790" y="2386.6666666666665" as="targetPoint" />
            <mxPoint x="1050" y="2842" as="sourcePoint" />
          </mxGeometry>
        </mxCell>
        <mxCell id="4MDXBfZJIh8W5gzM78hZ-159" value="&#xa;&lt;div style=&quot;color: rgb(212, 212, 212); background-color: rgb(30, 30, 30); font-family: Consolas, &amp;quot;Courier New&amp;quot;, monospace; font-weight: normal; font-size: 14px; line-height: 19px;&quot;&gt;&lt;div&gt;&lt;span style=&quot;color: #d4d4d4;&quot;&gt;&amp;nbsp;&lt;/span&gt;&lt;span style=&quot;color: #c8c8c8;&quot;&gt;countArrange&lt;/span&gt;&lt;span style=&quot;color: #d4d4d4;&quot;&gt; = &lt;/span&gt;&lt;span style=&quot;color: #b5cea8;&quot;&gt;1&lt;/span&gt;&lt;span style=&quot;color: #d4d4d4;&quot;&gt;;&lt;/span&gt;&lt;/div&gt;&lt;/div&gt;&#xa;&#xa;" style="rounded=1;whiteSpace=wrap;html=1;" parent="WIyWlLk6GJQsqaUBKTNV-1" vertex="1">
          <mxGeometry x="1292.88" y="2822" width="120" height="60" as="geometry" />
        </mxCell>
        <mxCell id="4MDXBfZJIh8W5gzM78hZ-165" value="" style="edgeStyle=orthogonalEdgeStyle;rounded=0;orthogonalLoop=1;jettySize=auto;html=1;" parent="WIyWlLk6GJQsqaUBKTNV-1" source="4MDXBfZJIh8W5gzM78hZ-161" target="4MDXBfZJIh8W5gzM78hZ-164" edge="1">
          <mxGeometry relative="1" as="geometry" />
        </mxCell>
        <mxCell id="4MDXBfZJIh8W5gzM78hZ-161" value="fiindValue" style="shape=parallelogram;perimeter=parallelogramPerimeter;whiteSpace=wrap;html=1;fixedSize=1;" parent="WIyWlLk6GJQsqaUBKTNV-1" vertex="1">
          <mxGeometry x="570" y="3269.9999999999995" width="120" height="60" as="geometry" />
        </mxCell>
        <mxCell id="4MDXBfZJIh8W5gzM78hZ-167" value="" style="edgeStyle=orthogonalEdgeStyle;rounded=0;orthogonalLoop=1;jettySize=auto;html=1;" parent="WIyWlLk6GJQsqaUBKTNV-1" source="4MDXBfZJIh8W5gzM78hZ-164" target="4MDXBfZJIh8W5gzM78hZ-166" edge="1">
          <mxGeometry relative="1" as="geometry" />
        </mxCell>
        <mxCell id="4MDXBfZJIh8W5gzM78hZ-183" value="" style="edgeStyle=orthogonalEdgeStyle;rounded=0;orthogonalLoop=1;jettySize=auto;html=1;" parent="WIyWlLk6GJQsqaUBKTNV-1" source="4MDXBfZJIh8W5gzM78hZ-164" target="4MDXBfZJIh8W5gzM78hZ-182" edge="1">
          <mxGeometry relative="1" as="geometry" />
        </mxCell>
        <mxCell id="4MDXBfZJIh8W5gzM78hZ-164" value="&lt;div style=&quot;color: rgb(212, 212, 212); background-color: rgb(30, 30, 30); font-family: Consolas, &amp;quot;Courier New&amp;quot;, monospace; font-size: 14px; line-height: 19px;&quot;&gt;countArrange == &lt;span style=&quot;color: #b5cea8;&quot;&gt;0&lt;/span&gt;&lt;/div&gt;" style="rhombus;whiteSpace=wrap;html=1;" parent="WIyWlLk6GJQsqaUBKTNV-1" vertex="1">
          <mxGeometry x="790" y="3260" width="150" height="100" as="geometry" />
        </mxCell>
        <mxCell id="4MDXBfZJIh8W5gzM78hZ-169" value="" style="edgeStyle=orthogonalEdgeStyle;rounded=0;orthogonalLoop=1;jettySize=auto;html=1;" parent="WIyWlLk6GJQsqaUBKTNV-1" source="4MDXBfZJIh8W5gzM78hZ-166" target="4MDXBfZJIh8W5gzM78hZ-168" edge="1">
          <mxGeometry relative="1" as="geometry" />
        </mxCell>
        <mxCell id="4MDXBfZJIh8W5gzM78hZ-166" value="i=0" style="whiteSpace=wrap;html=1;" parent="WIyWlLk6GJQsqaUBKTNV-1" vertex="1">
          <mxGeometry x="1035" y="3280" width="120" height="60" as="geometry" />
        </mxCell>
        <mxCell id="4MDXBfZJIh8W5gzM78hZ-171" value="" style="edgeStyle=orthogonalEdgeStyle;rounded=0;orthogonalLoop=1;jettySize=auto;html=1;" parent="WIyWlLk6GJQsqaUBKTNV-1" source="4MDXBfZJIh8W5gzM78hZ-168" target="4MDXBfZJIh8W5gzM78hZ-170" edge="1">
          <mxGeometry relative="1" as="geometry" />
        </mxCell>
        <mxCell id="4MDXBfZJIh8W5gzM78hZ-168" value="i&amp;lt;current" style="rhombus;whiteSpace=wrap;html=1;" parent="WIyWlLk6GJQsqaUBKTNV-1" vertex="1">
          <mxGeometry x="1255" y="3270" width="80" height="80" as="geometry" />
        </mxCell>
        <mxCell id="4MDXBfZJIh8W5gzM78hZ-173" style="edgeStyle=orthogonalEdgeStyle;rounded=0;orthogonalLoop=1;jettySize=auto;html=1;entryX=0;entryY=0.5;entryDx=0;entryDy=0;" parent="WIyWlLk6GJQsqaUBKTNV-1" source="4MDXBfZJIh8W5gzM78hZ-170" target="4MDXBfZJIh8W5gzM78hZ-172" edge="1">
          <mxGeometry relative="1" as="geometry" />
        </mxCell>
        <mxCell id="4MDXBfZJIh8W5gzM78hZ-179" value="true" style="edgeLabel;html=1;align=center;verticalAlign=middle;resizable=0;points=[];" parent="4MDXBfZJIh8W5gzM78hZ-173" vertex="1" connectable="0">
          <mxGeometry x="0.0252" y="3" relative="1" as="geometry">
            <mxPoint as="offset" />
          </mxGeometry>
        </mxCell>
        <mxCell id="4MDXBfZJIh8W5gzM78hZ-175" style="edgeStyle=orthogonalEdgeStyle;rounded=0;orthogonalLoop=1;jettySize=auto;html=1;entryX=0;entryY=0;entryDx=0;entryDy=0;" parent="WIyWlLk6GJQsqaUBKTNV-1" source="4MDXBfZJIh8W5gzM78hZ-176" target="4MDXBfZJIh8W5gzM78hZ-168" edge="1">
          <mxGeometry relative="1" as="geometry">
            <mxPoint x="1200" y="3300" as="targetPoint" />
            <Array as="points">
              <mxPoint x="1275" y="3150" />
            </Array>
          </mxGeometry>
        </mxCell>
        <mxCell id="4MDXBfZJIh8W5gzM78hZ-170" value="a[i]==find_value" style="rhombus;whiteSpace=wrap;html=1;" parent="WIyWlLk6GJQsqaUBKTNV-1" vertex="1">
          <mxGeometry x="1440" y="3260" width="145" height="100" as="geometry" />
        </mxCell>
        <mxCell id="4MDXBfZJIh8W5gzM78hZ-174" style="edgeStyle=orthogonalEdgeStyle;rounded=0;orthogonalLoop=1;jettySize=auto;html=1;" parent="WIyWlLk6GJQsqaUBKTNV-1" source="4MDXBfZJIh8W5gzM78hZ-172" edge="1">
          <mxGeometry relative="1" as="geometry">
            <mxPoint x="2795" y="2800" as="targetPoint" />
          </mxGeometry>
        </mxCell>
        <mxCell id="4MDXBfZJIh8W5gzM78hZ-172" value="i" style="shape=parallelogram;perimeter=parallelogramPerimeter;whiteSpace=wrap;html=1;fixedSize=1;" parent="WIyWlLk6GJQsqaUBKTNV-1" vertex="1">
          <mxGeometry x="1800" y="3280" width="120" height="60" as="geometry" />
        </mxCell>
        <mxCell id="4MDXBfZJIh8W5gzM78hZ-177" value="" style="edgeStyle=orthogonalEdgeStyle;rounded=0;orthogonalLoop=1;jettySize=auto;html=1;entryX=0;entryY=0;entryDx=0;entryDy=0;" parent="WIyWlLk6GJQsqaUBKTNV-1" source="4MDXBfZJIh8W5gzM78hZ-170" target="4MDXBfZJIh8W5gzM78hZ-176" edge="1">
          <mxGeometry relative="1" as="geometry">
            <mxPoint x="1275" y="3290" as="targetPoint" />
            <mxPoint x="1540" y="3279" as="sourcePoint" />
            <Array as="points">
              <mxPoint x="1540" y="3150" />
            </Array>
          </mxGeometry>
        </mxCell>
        <mxCell id="4MDXBfZJIh8W5gzM78hZ-178" value="false" style="edgeLabel;html=1;align=center;verticalAlign=middle;resizable=0;points=[];" parent="4MDXBfZJIh8W5gzM78hZ-177" vertex="1" connectable="0">
          <mxGeometry x="-0.5773" y="3" relative="1" as="geometry">
            <mxPoint y="-1" as="offset" />
          </mxGeometry>
        </mxCell>
        <mxCell id="4MDXBfZJIh8W5gzM78hZ-176" value="i++" style="rounded=1;whiteSpace=wrap;html=1;" parent="WIyWlLk6GJQsqaUBKTNV-1" vertex="1">
          <mxGeometry x="1410" y="3130" width="120" height="60" as="geometry" />
        </mxCell>
        <mxCell id="4MDXBfZJIh8W5gzM78hZ-185" value="" style="edgeStyle=orthogonalEdgeStyle;rounded=0;orthogonalLoop=1;jettySize=auto;html=1;" parent="WIyWlLk6GJQsqaUBKTNV-1" source="4MDXBfZJIh8W5gzM78hZ-186" target="4MDXBfZJIh8W5gzM78hZ-184" edge="1">
          <mxGeometry relative="1" as="geometry" />
        </mxCell>
        <mxCell id="4MDXBfZJIh8W5gzM78hZ-182" value="&#xa;&lt;div style=&quot;color: rgb(212, 212, 212); background-color: rgb(30, 30, 30); font-family: Consolas, &amp;quot;Courier New&amp;quot;, monospace; font-weight: normal; font-size: 14px; line-height: 19px;&quot;&gt;&lt;div&gt;&lt;span style=&quot;color: #c8c8c8;&quot;&gt;start&lt;/span&gt;&lt;span style=&quot;color: #d4d4d4;&quot;&gt; = &lt;/span&gt;&lt;span style=&quot;color: #b5cea8;&quot;&gt;0&lt;/span&gt;&lt;span style=&quot;color: #d4d4d4;&quot;&gt;, &lt;/span&gt;&lt;span style=&quot;color: #c8c8c8;&quot;&gt;end&lt;/span&gt;&lt;span style=&quot;color: #d4d4d4;&quot;&gt; = &lt;/span&gt;&lt;span style=&quot;color: #c8c8c8;&quot;&gt;current&lt;/span&gt;&lt;span style=&quot;color: #d4d4d4;&quot;&gt;, &lt;/span&gt;&lt;span style=&quot;color: #c8c8c8;&quot;&gt;check&lt;/span&gt;&lt;span style=&quot;color: #d4d4d4;&quot;&gt;;&lt;/span&gt;&lt;/div&gt;&lt;/div&gt;&#xa;&#xa;" style="whiteSpace=wrap;html=1;" parent="WIyWlLk6GJQsqaUBKTNV-1" vertex="1">
          <mxGeometry x="805" y="3460" width="275" height="190" as="geometry" />
        </mxCell>
        <mxCell id="4MDXBfZJIh8W5gzM78hZ-189" value="" style="edgeStyle=orthogonalEdgeStyle;rounded=0;orthogonalLoop=1;jettySize=auto;html=1;" parent="WIyWlLk6GJQsqaUBKTNV-1" source="4MDXBfZJIh8W5gzM78hZ-184" target="4MDXBfZJIh8W5gzM78hZ-188" edge="1">
          <mxGeometry relative="1" as="geometry" />
        </mxCell>
        <mxCell id="4MDXBfZJIh8W5gzM78hZ-191" value="" style="edgeStyle=orthogonalEdgeStyle;rounded=0;orthogonalLoop=1;jettySize=auto;html=1;" parent="WIyWlLk6GJQsqaUBKTNV-1" source="4MDXBfZJIh8W5gzM78hZ-184" target="4MDXBfZJIh8W5gzM78hZ-190" edge="1">
          <mxGeometry relative="1" as="geometry" />
        </mxCell>
        <mxCell id="4MDXBfZJIh8W5gzM78hZ-184" value="a[check]==findValue" style="rhombus;whiteSpace=wrap;html=1;" parent="WIyWlLk6GJQsqaUBKTNV-1" vertex="1">
          <mxGeometry x="860" y="3940" width="157.5" height="130" as="geometry" />
        </mxCell>
        <mxCell id="4MDXBfZJIh8W5gzM78hZ-187" value="" style="edgeStyle=orthogonalEdgeStyle;rounded=0;orthogonalLoop=1;jettySize=auto;html=1;" parent="WIyWlLk6GJQsqaUBKTNV-1" source="4MDXBfZJIh8W5gzM78hZ-182" target="4MDXBfZJIh8W5gzM78hZ-186" edge="1">
          <mxGeometry relative="1" as="geometry">
            <mxPoint x="943" y="3650" as="sourcePoint" />
            <mxPoint x="939" y="3940" as="targetPoint" />
          </mxGeometry>
        </mxCell>
        <mxCell id="4MDXBfZJIh8W5gzM78hZ-186" value="&#xa;&lt;div style=&quot;color: rgb(212, 212, 212); background-color: rgb(30, 30, 30); font-family: Consolas, &amp;quot;Courier New&amp;quot;, monospace; font-weight: normal; font-size: 14px; line-height: 19px;&quot;&gt;&lt;div&gt;&lt;span style=&quot;color: #d4d4d4;&quot;&gt;&amp;nbsp;&lt;/span&gt;&lt;span style=&quot;color: #c8c8c8;&quot;&gt;check&lt;/span&gt;&lt;span style=&quot;color: #d4d4d4;&quot;&gt; = (&lt;/span&gt;&lt;span style=&quot;color: #c8c8c8;&quot;&gt;start&lt;/span&gt;&lt;span style=&quot;color: #d4d4d4;&quot;&gt; + &lt;/span&gt;&lt;span style=&quot;color: #c8c8c8;&quot;&gt;end&lt;/span&gt;&lt;span style=&quot;color: #d4d4d4;&quot;&gt; / &lt;/span&gt;&lt;span style=&quot;color: #b5cea8;&quot;&gt;2&lt;/span&gt;&lt;span style=&quot;color: #d4d4d4;&quot;&gt;);&lt;/span&gt;&lt;/div&gt;&lt;/div&gt;&#xa;&#xa;" style="rounded=1;whiteSpace=wrap;html=1;" parent="WIyWlLk6GJQsqaUBKTNV-1" vertex="1">
          <mxGeometry x="880" y="3730" width="120" height="60" as="geometry" />
        </mxCell>
        <mxCell id="4MDXBfZJIh8W5gzM78hZ-202" style="edgeStyle=orthogonalEdgeStyle;rounded=0;orthogonalLoop=1;jettySize=auto;html=1;" parent="WIyWlLk6GJQsqaUBKTNV-1" source="4MDXBfZJIh8W5gzM78hZ-188" edge="1">
          <mxGeometry relative="1" as="geometry">
            <mxPoint x="2790" y="2798" as="targetPoint" />
          </mxGeometry>
        </mxCell>
        <mxCell id="4MDXBfZJIh8W5gzM78hZ-188" value="a[check]" style="shape=parallelogram;perimeter=parallelogramPerimeter;whiteSpace=wrap;html=1;fixedSize=1;" parent="WIyWlLk6GJQsqaUBKTNV-1" vertex="1">
          <mxGeometry x="1440" y="3972.5" width="120" height="65" as="geometry" />
        </mxCell>
        <mxCell id="4MDXBfZJIh8W5gzM78hZ-194" style="edgeStyle=orthogonalEdgeStyle;rounded=0;orthogonalLoop=1;jettySize=auto;html=1;entryX=1;entryY=0.5;entryDx=0;entryDy=0;" parent="WIyWlLk6GJQsqaUBKTNV-1" source="4MDXBfZJIh8W5gzM78hZ-190" target="4MDXBfZJIh8W5gzM78hZ-192" edge="1">
          <mxGeometry relative="1" as="geometry" />
        </mxCell>
        <mxCell id="4MDXBfZJIh8W5gzM78hZ-196" value="" style="edgeStyle=orthogonalEdgeStyle;rounded=0;orthogonalLoop=1;jettySize=auto;html=1;entryX=0.5;entryY=0;entryDx=0;entryDy=0;" parent="WIyWlLk6GJQsqaUBKTNV-1" source="4MDXBfZJIh8W5gzM78hZ-190" target="4MDXBfZJIh8W5gzM78hZ-197" edge="1">
          <mxGeometry relative="1" as="geometry">
            <mxPoint x="938.75" y="4480" as="targetPoint" />
          </mxGeometry>
        </mxCell>
        <mxCell id="4MDXBfZJIh8W5gzM78hZ-190" value="&lt;div style=&quot;color: rgb(212, 212, 212); background-color: rgb(30, 30, 30); font-family: Consolas, &amp;quot;Courier New&amp;quot;, monospace; font-size: 14px; line-height: 19px;&quot;&gt;a[&lt;span style=&quot;color: #c8c8c8;&quot;&gt;check&lt;/span&gt;] &amp;gt; &lt;span style=&quot;color: #c8c8c8;&quot;&gt;find_value&lt;/span&gt;&lt;/div&gt;" style="rhombus;whiteSpace=wrap;html=1;" parent="WIyWlLk6GJQsqaUBKTNV-1" vertex="1">
          <mxGeometry x="818.75" y="4210" width="240" height="190" as="geometry" />
        </mxCell>
        <mxCell id="4MDXBfZJIh8W5gzM78hZ-200" style="edgeStyle=orthogonalEdgeStyle;rounded=0;orthogonalLoop=1;jettySize=auto;html=1;" parent="WIyWlLk6GJQsqaUBKTNV-1" source="4MDXBfZJIh8W5gzM78hZ-192" edge="1">
          <mxGeometry relative="1" as="geometry">
            <mxPoint x="940" y="3690" as="targetPoint" />
            <Array as="points">
              <mxPoint x="508" y="3680" />
              <mxPoint x="940" y="3680" />
            </Array>
          </mxGeometry>
        </mxCell>
        <mxCell id="4MDXBfZJIh8W5gzM78hZ-192" value="&#xa;&lt;div style=&quot;color: rgb(212, 212, 212); background-color: rgb(30, 30, 30); font-family: Consolas, &amp;quot;Courier New&amp;quot;, monospace; font-weight: normal; font-size: 14px; line-height: 19px;&quot;&gt;&lt;div&gt;&lt;span style=&quot;color: #d4d4d4;&quot;&gt;&amp;nbsp;&lt;/span&gt;&lt;span style=&quot;color: #c8c8c8;&quot;&gt;end&lt;/span&gt;&lt;span style=&quot;color: #d4d4d4;&quot;&gt; = &lt;/span&gt;&lt;span style=&quot;color: #c8c8c8;&quot;&gt;check&lt;/span&gt;&lt;span style=&quot;color: #d4d4d4;&quot;&gt; - &lt;/span&gt;&lt;span style=&quot;color: #b5cea8;&quot;&gt;1&lt;/span&gt;&lt;span style=&quot;color: #d4d4d4;&quot;&gt;;&lt;/span&gt;&lt;/div&gt;&lt;/div&gt;&#xa;&#xa;" style="rounded=1;whiteSpace=wrap;html=1;" parent="WIyWlLk6GJQsqaUBKTNV-1" vertex="1">
          <mxGeometry x="383" y="4240" width="250" height="120" as="geometry" />
        </mxCell>
        <mxCell id="4MDXBfZJIh8W5gzM78hZ-201" style="edgeStyle=orthogonalEdgeStyle;rounded=0;orthogonalLoop=1;jettySize=auto;html=1;" parent="WIyWlLk6GJQsqaUBKTNV-1" source="4MDXBfZJIh8W5gzM78hZ-197" edge="1">
          <mxGeometry relative="1" as="geometry">
            <mxPoint x="510" y="3700" as="targetPoint" />
            <Array as="points">
              <mxPoint x="181" y="4635" />
              <mxPoint x="181" y="3700" />
            </Array>
          </mxGeometry>
        </mxCell>
        <mxCell id="4MDXBfZJIh8W5gzM78hZ-197" value="&#xa;&lt;div style=&quot;color: rgb(212, 212, 212); background-color: rgb(30, 30, 30); font-family: Consolas, &amp;quot;Courier New&amp;quot;, monospace; font-weight: normal; font-size: 14px; line-height: 19px;&quot;&gt;&lt;div&gt;&lt;span style=&quot;color: #d4d4d4;&quot;&gt;&amp;nbsp;&lt;/span&gt;&lt;span style=&quot;color: #c8c8c8;&quot;&gt;start&lt;/span&gt;&lt;span style=&quot;color: #d4d4d4;&quot;&gt; = &lt;/span&gt;&lt;span style=&quot;color: #c8c8c8;&quot;&gt;check&lt;/span&gt;&lt;span style=&quot;color: #d4d4d4;&quot;&gt; + &lt;/span&gt;&lt;span style=&quot;color: #b5cea8;&quot;&gt;1&lt;/span&gt;&lt;span style=&quot;color: #d4d4d4;&quot;&gt;;&lt;/span&gt;&lt;/div&gt;&lt;/div&gt;&#xa;&#xa;" style="rounded=1;whiteSpace=wrap;html=1;" parent="WIyWlLk6GJQsqaUBKTNV-1" vertex="1">
          <mxGeometry x="720" y="4580" width="190" height="110" as="geometry" />
        </mxCell>
      </root>
    </mxGraphModel>
  </diagram>
</mxfile>
